<svg width="36" height="36" viewBox="0 0 36 36" fill="none" xmlns="http://www.w3.org/2000/svg">
<g clip-path="url(#clip0_1175_350)">
<path d="M32.1601 16.0801L8.94007 4.47011C8.62682 4.32498 8.28224 4.2605 7.93771 4.28254C7.59318 4.30459 7.25963 4.41245 6.96743 4.59632C6.67523 4.78019 6.43365 5.03422 6.2647 5.33529C6.09574 5.63636 6.00477 5.97491 6.00007 6.32011V29.5301C5.99714 29.8845 6.08568 30.2336 6.25712 30.5437C6.42856 30.8539 6.6771 31.1145 6.97873 31.3005C7.28036 31.4865 7.62487 31.5916 7.97896 31.6055C8.33305 31.6195 8.68475 31.5418 9.00007 31.3801L32.1601 19.7701C32.5031 19.5979 32.7916 19.3337 32.9931 19.007C33.1947 18.6803 33.3014 18.304 33.3014 17.9201C33.3014 17.5362 33.1947 17.1599 32.9931 16.8332C32.7916 16.5065 32.5031 16.2423 32.1601 16.0701V16.0801Z" fill="#FCFCFC"/>
</g>
<defs>
<clipPath id="clip0_1175_350">
<rect width="36" height="36" fill="white"/>
</clipPath>
</defs>
</svg>
