<svg aria-hidden="true" style="width:0;height:0;position:absolute;overflow:hidden" xmlns="http://www.w3.org/2000/svg"><defs><symbol id="logo" viewBox="0 0 34 32"><path d="M17.184 14.109c1.613-4.366-1.728-6.756-3.942-8.327-.424-.321-.847-.621-1.19-.895A4.17 4.17 0 0 1 10.726.546l-.007.029a.458.458 0 0 0-.348-.566l-.003-.001a.46.46 0 0 0-.249.019l.003-.001a7.497 7.497 0 0 0-2.064 1.23l.011-.009a4.867 4.867 0 0 0-1.901 3.846v.001a5.607 5.607 0 0 0-1.096 1.144 4.158 4.158 0 0 0-.808 2.691v-.01a5.3 5.3 0 0 0-1.608 5.021l-.006-.035a1.438 1.438 0 0 0-.638 1.629l-.002-.01a1.44 1.44 0 0 0 1.382 1.046h.042v2.485a.95.95 0 0 0 .949.949h.745l1.208 10.429a.947.947 0 0 0 .94.845H12.301a.96.96 0 0 0 .949-.84v-.005l1.207-10.429h.741a.953.953 0 0 0 .952-.95V16.57h.029a1.446 1.446 0 0 0 1.333-2.005l.004.01a1.401 1.401 0 0 0-.316-.47l-.013.004zM6.315 6.188c.61 2.285 2.964 3.183 5.111 3.987a.461.461 0 1 0 .329-.844h-.003C9.44 8.456 7.259 7.642 7.095 5.307A3.891 3.891 0 0 1 8.63 1.966l.01-.007a6.926 6.926 0 0 1 1.033-.709 5.387 5.387 0 0 0 .001.898l-.001-.02a4.996 4.996 0 0 0 1.779 3.468l.008.006c.351.3.787.608 1.27.937 1.114.798 2.38 1.689 3.184 2.897.503.717.803 1.607.803 2.568a4.48 4.48 0 0 1-.352 1.748l.011-.03h-1.871c-3.858 0-8.291-1.064-9.167-4.045a3.399 3.399 0 0 1 .996-3.464l.003-.003-.02-.021zm3.472 14.395 1.415 1.41-1.415 1.411-1.415-1.419 1.415-1.401zm3.243 3.702-1.168 1.165-1.415-1.411 1.415-1.406 1.228 1.221-.059.43zM9.787 27.52l-1.415-1.411 1.415-1.41 1.415 1.41-1.415 1.411zm-.648-3.471L7.725 25.46l-1.176-1.174-.051-.422 1.227-1.221 1.415 1.406zm-2.065 2.06-.284.283-.072-.642.355.359zm-.149 1.445.8-.798 1.555 1.563a.829.829 0 0 0 .029.093H7.022l-.098-.857zm4.929-.799.8.798-.098.845h-2.349l1.647-1.642zm.932-.362-.284-.284.36-.359-.076.642zm.422-3.691-.707-.718.899-.895-.19 1.613zm-1.358-1.36-1.342-1.334h2.684l-1.341 1.334zm-4.129 0-1.343-1.334h2.685l-1.342 1.334zm4.573 9.019H7.276c-.015-.002-.028-.014-.029-.029l-.118-1.013h5.318l-.115 1.013a.033.033 0 0 1-.033.029h-.005zm3.883-14.71h-1.474a.463.463 0 0 0-.505.458v.001a.46.46 0 0 0 .507.458h-.002.525v2.483a.033.033 0 0 1-.033.029H4.367a.033.033 0 0 1-.033-.029v-2.483h8.387a.462.462 0 0 0 .298-.767.46.46 0 0 0-.296-.149H3.406a.527.527 0 0 1-.572-.522v-.002a.522.522 0 0 1 .575-.519h-.002.961a.46.46 0 0 0 .002-.915h-.848a4.5 4.5 0 0 1 .929-3.683l-.007.008c.296.92 1.059 2.179 2.964 3.18 1.79.933 4.162 1.41 7.045 1.41h1.693a.528.528 0 0 1 .526.307l.001.003a.522.522 0 0 1-.53.732h.031zm3.682 12.741-.342.525.008.004.335-.529zm3.681.176.627-.013-.017-.724-.714.12.105.617zm.043 1.927.16.606.477-.126-.011-.493-.627.013zm-4.831.093.141-.611h-.004l-.136.611zm-2.385-1.065zm-.862-1.958.626.003v-.003h-.626zm.299-1.369-.562-.277v.002l.562.275zm1.92-1.639.223.586.002-.001-.224-.585zm6.153-.16.624.049.042-.529-.515-.127-.151.607zm-.153 1.964-.116.615.686.131.055-.697-.625-.048zm-1.669-.803c-.94 0-1.731.1-2.307.354-.296.13-.564.313-.76.572a1.46 1.46 0 0 0-.299.89v.016-.001h1.253c0-.073.017-.115.044-.149a.677.677 0 0 1 .267-.181c.337-.148.916-.248 1.802-.248v-1.253zm-3.367 1.831c0 .644.289 1.176.829 1.528l.683-1.049a.51.51 0 0 1-.259-.478h-1.253zm.836 1.532c.511.323 1.187.445 1.944.445v-1.253c-.654 0-1.052-.11-1.274-.251l-.669 1.058zm1.944.446c.743 0 1.469-.061 2.178-.18l-.21-1.235c-.585.103-1.259.163-1.947.163h-.022.001v1.253zm1.447-.784.042 1.927 1.253-.028-.043-1.927-1.252.028zm.509 1.307a9.28 9.28 0 0 1-2.372.285v1.252c.96 0 1.858-.107 2.691-.327l-.319-1.211zm-2.371.285c-.884 0-1.6-.07-2.159-.199l-.281 1.221c.681.157 1.499.23 2.44.23v-1.252zm-2.164-.199c-.598-.133-1.029-.275-1.317-.416l-.55 1.125c.413.202.952.371 1.594.514l.273-1.223zm-1.317-.416a3.84 3.84 0 0 1-.806-.518l.006.005-.81.955c.313.265.668.493 1.061.684l.549-1.125zm-.8-.515c-.426-.36-.644-.83-.64-1.476l-1.253-.006c-.005.985.352 1.819 1.085 2.438l.808-.957zm-.64-1.48c0-.421.082-.781.236-1.095l-1.126-.551a3.64 3.64 0 0 0-.364 1.6v.048-.002h1.252zm.235-1.093c.285-.579.788-1.029 1.581-1.331l-.445-1.171c-1.034.392-1.811 1.036-2.26 1.948l1.124.553zm1.583-1.33c.833-.32 1.763-.485 2.796-.485v-1.252c-1.168 0-2.252.186-3.245.568l.45 1.17zm2.796-.485c1.054 0 2.047.118 2.981.349l.301-1.215a13.27 13.27 0 0 0-3.216-.386h-.069.004v1.253zm2.507-.308-.152 1.963 1.249.098.152-1.964-1.248-.097zm.589 1.397a9.48 9.48 0 0 0-1.78-.189h-.006v1.253c.44 0 .957.053 1.553.166l.233-1.229zm6.11 1-.003.627.637.003-.007-.637-.627.007zm-.269-.813-.426.459.006.005.421-.463zm-1.559.061.434.452.004-.005-.438-.447zm-.379.74-.618-.101-.12.723.733.004.003-.627zm4.604 3.339.379.499.225-.171.021-.281-.625-.047zm-1.351.502-.135-.612-.003.001.138.611zm-4.697-.172-.213.589.005.002.208-.591zm-1.07-.568-.389.491.008.006.381-.497zm-.716-.899-.562.278.002.003.56-.28zm.734-3.798zm5.724-.679.25-.574-.006-.003-.244.577zm1.437 1.321-.563.274.002.003.561-.278zm.245 1.095.625.045.002-.023v-.023h-.627zm-.073 1.009-.003.627.585.003.042-.584-.624-.045zm-4.96-.025.003-.627-.817-.003.208.79.605-.16zm.71.875-.309.545.003.002.306-.547zm3.804-.214v-.626h-.125l-.115.048.241.578zm.33 0 .625.047.051-.674h-.675v.627zm-1.887-1.781c-.005-.453-.109-.939-.475-1.271l-.842.928c-.007-.007.008.002.025.056.019.057.037.153.039.301l1.253-.013zm-.47-1.265c-.328-.305-.76-.406-1.185-.406v1.253c.244 0 .318.059.333.071l.852-.918zm-1.184-.406c-.467 0-.9.147-1.24.479l.877.894c.068-.067.168-.12.362-.12v-1.253zm-1.236.474a1.901 1.901 0 0 0-.562 1.08l-.001.011 1.236.203a.66.66 0 0 1 .195-.39l-.867-.904zm.052 1.819 2.208.012.007-1.252-2.208-.013-.007 1.252zm4.23 2.214c-.137.104-.472.248-1.108.388l.269 1.224c.661-.146 1.227-.335 1.595-.615l-.756-.997zm-1.111.389a7.72 7.72 0 0 1-1.75.205h-.002v1.253c.662 0 1.339-.08 2.028-.236l-.276-1.221zm-1.752.204c-.59 0-1.076-.028-1.464-.08l-.168 1.241a12.45 12.45 0 0 0 1.631.092v-1.253zm-1.463-.08a5.721 5.721 0 0 1-1.135-.275l-.417 1.181c.455.16.917.273 1.384.335l.168-1.241zm-1.13-.273a3.324 3.324 0 0 1-.911-.483l.009.006-.762.994a4.54 4.54 0 0 0 1.238.66l.427-1.177zm-.896-.472a2.017 2.017 0 0 1-.539-.675l-.005-.012-1.12.56c.22.441.514.815.887 1.11l.777-.982zm-.543-.684c-.131-.267-.211-.61-.211-1.05h-1.253c0 .588.105 1.129.34 1.605l1.123-.556zm-.21-1.051c0-.44.08-.829.23-1.176l-1.149-.499a4.096 4.096 0 0 0-.334 1.634v.043-.002h1.253zm.23-1.175c.158-.364.351-.632.57-.827l-.834-.936a3.57 3.57 0 0 0-.885 1.264l1.149.499zm.57-.828c.674-.6 1.7-.947 3.179-.947v-1.253c-1.659 0-3.03.39-4.013 1.266l.834.935zm3.179-.947c.664 0 1.29.126 1.884.378l.489-1.154a5.918 5.918 0 0 0-2.35-.478h-.025.001v1.253zm1.878.375c.555.242.913.584 1.125 1.021l1.126-.547c-.359-.739-.958-1.276-1.75-1.622l-.501 1.149zm1.126 1.024c.117.237.179.505.179.817h1.253c0-.487-.101-.947-.31-1.371l-1.123.554zm.181.772-.073 1.009 1.25.091.073-1.009-1.25-.091zm.555.428-4.96-.024-.007 1.253 4.96.024.007-1.253zm-5.569.762c.147.555.504.976 1.007 1.26l.616-1.091c-.248-.14-.362-.302-.412-.488l-1.211.319zm1.009 1.262c.509.284 1.144.397 1.853.397v-1.252c-.595 0-.99-.099-1.241-.239l-.611 1.094zm1.853.397c.762 0 1.599-.206 2.499-.58l-.482-1.156c-.805.335-1.474.484-2.016.484v1.252zm2.257-.532h.331v-1.252h-.33v1.252zm-.294-.673-.116 1.554 1.25.093.116-1.553-1.25-.093z"/></symbol><symbol id="ice-crema" viewBox="0 0 32 32"><path d="M16.108.107c.08.215.241 1.252.241 1.573v.011c0 .818-.318 1.561-.838 2.114l.001-.002c-.449.482-.898.749-1.975 1.185-1.198.489-1.694.783-2.256 1.339-.569.569-.904 1.191-1.024 1.922-.134.796 0 1.358.408 1.68l.207.16-.328.208c-.662.436-1.867 1.46-2.075 1.774-.402.603-.362 1.164.093 1.393l.214.107-.241.228c-.362.341-.436.576-.382 1.191.034.409.02.63-.073.964-.114.436-.114.442.033.75.148.301.563.683.938.844.18.08.187.107.228.723.02.356.053 1.486.08 2.517.02 1.031.068 1.975.107 2.089.034.12.161.281.276.361.388.268.656.556.829.891.195.382.409 1.319 1.058 4.559l.455 2.276.282.268c.535.529 1.56.77 3.247.77 1.693 0 2.704-.235 3.24-.764l.288-.274.414-2.109c.916-4.612.997-4.867 1.714-5.436.22-.181.436-.402.475-.502.047-.114.094-.991.127-2.316.027-1.178.068-2.343.094-2.591l.04-.448.436-.329c.548-.421.763-.803.763-1.392-.006-.696-.462-1.46-1.292-2.142l-.396-.321.195-.276c.81-1.117.301-2.664-1.205-3.694l-.455-.315.167-.174c.743-.796.864-3.173.241-4.827-.374-.984-1.232-2.055-2.283-2.845-.514-.388-1.934-1.245-2.06-1.245-.027 0-.027.047-.006.107zm1.928 2.337c.356.348.783.823.951 1.064.997 1.393 1.252 3.14.649 4.426-.241.522-.964 1.298-1.634 1.76-1.024.71-3.327 1.902-4.933 2.557-2.584 1.052-4.084 1.252-4.258.563-.068-.261.127-.468.951-1.018.742-.508 4.076-2.986 4.136-3.086.02-.027-.321.127-.749.341-1.452.737-2.142.596-2.108-.428.02-.743.556-1.587 1.298-2.068.188-.12.771-.388 1.307-.603 1.76-.709 2.296-1.071 2.892-1.961.356-.529.743-1.507.77-1.922.007-.147.034-.261.053-.261s.322.288.676.636zm1.827 7.606c.489.274.997.743 1.218 1.111.389.662.188 1.325-.649 2.169-.91.924-2.463 1.808-4.171 2.37-1.573.516-3.079.756-5.236.83l-1.339.047.871.053c1.124.074 3.3.007 4.143-.127 2.243-.356 4.151-1.065 5.516-2.042.308-.221.629-.402.716-.402.221 0 1.185.924 1.38 1.312.107.221.133.382.114.596-.1.891-1.186 1.366-3.803 1.68-3.2.382-7.384.007-9.172-.816-.844-.388-.984-.61-.77-1.198.067-.188.08-.409.053-.724-.034-.415-.027-.468.12-.622.335-.362.898-.569 2.96-1.092.723-.187 1.707-.482 2.175-.656 1.138-.415 3.274-1.493 4.264-2.156.931-.616 1.065-.643 1.607-.334zm-8.891 8.194c1.406.409 2.652.529 4.968.482 1.74-.033 2.812-.14 4.357-.415.316-.053.589-.1.623-.1.074 0 .053 2.571-.027 3.247-.087.716-.282 1.272-.489 1.406-.214.14-1.285.288-2.718.368-2.939.16-5.958 0-6.895-.375-.508-.207-.563-.476-.569-2.959 0-1.653.013-1.881.1-1.847.053.02.348.107.649.194zm1.587 5.69c.482.06 1.004.12 1.164.14l.289.034-.255.281c-.328.355-.83 1.064-1.011 1.426-.207.415-.275.442-.582.275l-.261-.148-.147-.91a23.34 23.34 0 0 0-.216-1.217l.028.165c-.06-.173-.121-.173.99-.046zm7.137-.074c0 .013-.034.187-.068.382-.04.2-.207 1.292-.374 2.429-.341 2.377-.569 3.494-.777 3.869-.288.502-.978.796-2.095.891-.436.034-1.748-.053-1.821-.121-.053-.06 1.098-1.486 1.279-1.58.167-.094.213-.08.782.213.663.349.998.403.998.181s-.174-.436-.603-.729c-.395-.282-.535-.443-.535-.63 0-.053.194-.355.428-.669s.575-.817.749-1.118l.329-.542.3.041c.609.087.77.08.75-.053-.013-.068-.127-.261-.255-.422-.127-.167-.228-.335-.228-.368 0-.127.622-1.299.824-1.547.174-.214.315-.322.315-.228zm-4.184.536c.334.221 1.593 1.313 1.673 1.446.034.06-1.258 2.082-1.513 2.37-.027.034-.167-.033-.308-.14a20.117 20.117 0 0 0-1.08-.752l-.085-.052-.904-.596.542-.917c.964-1.613.944-1.587 1.151-1.587.107 0 .341.1.523.228zm2.537.24c-.235.288-.428.469-.508.469-.174 0-.456-.154-.931-.502l-.396-.288.791-.047c.348-.013.665-.034.98-.065l-.064.005c.536-.087.536-.08.128.428zm-5.061 3.221c.616.241 1.66.81 1.962 1.065.214.173.214.187.127.401a6.654 6.654 0 0 1-.43.741l.015-.024a10.9 10.9 0 0 0-.417.682l-.032.061c-.213.415-.281.449-.723.329-.476-.141-.729-.382-.863-.818-.181-.609-.469-2.329-.436-2.597.013-.1.294-.04.796.161z"/></symbol><symbol id="weight" viewBox="0 0 32 32"><path d="M14.178.547c-3.974.589-7.247 2.796-8.452 5.685-.384.913-.487 1.474-.487 2.573.007.812.036 1.114.163 1.552.258.862.443 1.301.827 1.92l.356.574-.4.489c-3.154 3.924-3.501 9.444-.871 13.793.982 1.631 2.586 3.235 4.151 4.169l.466.273 12.743-.108.302-.165c1.057-.596 2.548-1.926 3.383-3.004a12.51 12.51 0 0 0 2.413-5.546l.01-.074c.118-.74.118-2.933-.007-3.63-.377-2.148-1.182-3.988-2.452-5.62-.244-.309-.436-.568-.436-.589 0-.014.133-.237.288-.489a7.777 7.777 0 0 0 .864-1.962c.199-.719.199-2.516 0-3.235-.709-2.551-2.836-4.679-5.843-5.851-.843-.331-2.284-.683-3.214-.797-.864-.101-2.999-.08-3.804.043zm4.498 1.171c3.945.769 6.834 3.184 7.365 6.16.118.668.044 1.804-.155 2.436-.2.619-.569 1.345-1.004 1.963-.178.252-.325.54-.325.633s.155.338.377.582c1.846 2.048 2.821 4.614 2.821 7.388-.007 3.156-1.219 5.923-3.553 8.093-.399.373-.968.841-1.271 1.042l-.554.373-12.211.051-.473-.302c-1.714-1.114-3.258-2.954-4.115-4.908-1.078-2.472-1.189-5.34-.31-7.913.466-1.337 1.086-2.429 2.031-3.58.385-.46.562-.733.562-.862 0-.108-.192-.46-.444-.827-.886-1.287-1.248-2.717-1.034-4.068.222-1.365.842-2.487 1.987-3.601 1.493-1.444 3.576-2.4 6.021-2.76 1.012-.151 3.25-.093 4.284.1z"/><path d="M14.509 2.983c-3.028.496-5.4 2.178-6.175 4.385-.178.496-.207.69-.207 1.401s.029.907.207 1.402c.11.316.317.756.458.978.384.618.554.64 1.316.18a11.719 11.719 0 0 1 3.727-1.474l.078-.014c.916-.187 2.674-.258 3.671-.143 1.558.18 3.25.74 4.602 1.538.384.222.776.409.871.409.562 0 1.278-1.617 1.278-2.875 0-2.796-2.674-5.189-6.463-5.786-.805-.129-2.587-.129-3.362 0zm3.657 1.15c1.271.273 2.437.791 3.317 1.474 1.182.913 1.817 2.185 1.713 3.413-.036.489-.221 1.15-.332 1.222-.03.014-.444-.158-.916-.388a14.138 14.138 0 0 0-3.131-1.081l-.097-.018c-.687-.143-.975-.165-2.511-.158-1.515 0-1.832.022-2.489.158a13.283 13.283 0 0 0-3.196 1.099l.078-.035c-1.1.524-1.042.532-1.241-.116-.258-.84-.096-1.955.406-2.796.267-.445.997-1.186 1.529-1.552 1.012-.698 1.899-1.013 3.804-1.359.391-.071 2.564.029 3.066.137zm-1.203 9.271c-.207.26-.207.504.007.712.14.137.281.172.791.209a6.489 6.489 0 0 1 2.815.865l-.031-.017c.606.359 1.529 1.229 1.943 1.854.613.898 1.034 2.185 1.034 3.134 0 .331.03.431.185.574.236.237.547.237.776 0 .163-.165.169-.208.125-.912-.207-3.479-3.184-6.382-6.744-6.578l-.74-.043-.162.202z"/></symbol><symbol id="cow" viewBox="0 0 31 32"><path d="M6.002.778c-.254.219-.98 1.732-1.24 2.558-.31 1.024-.415 1.792-.374 2.851.056 1.514.437 2.662 1.275 3.861.219.315.395.585.395.607 0 .015-.134.029-.303.029-.726 0-2.086.241-3.128.555C.972 11.736 0 12.606 0 13.579c0 .343.31.928.641 1.228.641.578 2.043 1.126 3.55 1.389.521.095 2.071.256 2.416.264.063 0 .085.336.085 1.44 0 .951.035 1.689.106 2.142.253 1.623 1.042 3.342 2.084 4.555l.36.417-.24.387c-.352.548-.486.965-.528 1.586-.106 1.492.823 2.815 2.621 3.744 3.422 1.776 8.741 1.082 10.735-1.404.972-1.214 1.085-2.603.317-3.861l-.24-.388.43-.519c.803-.965 1.324-1.93 1.718-3.152.331-1.038.458-2.04.458-3.626 0-.724.021-1.323.056-1.323.324-.008 1.881-.176 2.374-.264 1.514-.263 2.889-.804 3.55-1.389.331-.3.641-.885.641-1.228 0-1.083-1.098-1.96-3.142-2.486-.669-.176-1.93-.387-2.543-.424l-.289-.023.317-.438c.394-.534.887-1.571 1.078-2.252.535-1.967.204-4.255-.944-6.441-.48-.905-.811-1.117-1.198-.759-.148.138-.212.329-.352 1.016-.437 2.186-1.247 3.92-2.43 5.199l-.521.571H9.966l-.465-.505c-1.155-1.271-1.994-3.07-2.43-5.264-.141-.688-.204-.877-.352-1.016-.233-.212-.458-.205-.718.022zm.901 4.336c.374.819.839 1.586 1.387 2.295l.437.563-.457.344c-.43.329-.831.797-1.142 1.33l-.133.242-.338-.461c-1.155-1.594-1.444-3.546-.831-5.571.296-.98.289-.973.556-.125.127.409.367 1.031.521 1.382zm18.335-1.543c.255.709.403 1.526.403 2.378l-.001.09v-.005c0 1.331-.352 2.456-1.091 3.465l-.331.453-.247-.417a4.425 4.425 0 0 0-1.22-1.344l-.013-.009c-.19-.124-.337-.248-.337-.263 0-.022.133-.19.303-.373.782-.87 1.62-2.435 2.036-3.779.126-.418.253-.761.274-.761s.127.256.225.562zM21.64 8.916c.782.329 1.528 1.271 1.648 2.069.063.439.211.717.401.761.085.015.669.066 1.296.109 2.225.147 3.979.622 4.727 1.272.345.307.31.563-.105.878-.831.629-2.627 1.104-4.459 1.185-1.212.051-1.465.086-1.628.255-.119.125-.133.256-.133 1.579 0 1.792-.092 2.823-.317 3.656-.317 1.133-.944 2.34-1.676 3.196l-.303.351-.627-.373a7.624 7.624 0 0 0-2.272-.933l-.053-.01c-2.67-.636-5.622-.248-7.607 1.002l-.458.292-.289-.343c-.394-.461-1.014-1.448-1.261-2.003-.542-1.258-.704-2.282-.704-4.534 0-2.186.112-2.026-1.507-2.113-2.071-.11-3.65-.483-4.643-1.111-.733-.468-.612-.885.409-1.375.979-.476 2.324-.76 4.191-.877 1.451-.095 1.486-.117 1.62-.819.197-1.06.979-1.937 1.966-2.216.246-.073 1.627-.087 5.853-.08l5.53.014.401.169zm-3.96 15.135c1.726.424 3.015 1.213 3.572 2.193.134.227.19.461.218.819.029.446.008.555-.162.921-.782 1.661-3.656 2.756-6.579 2.508-3.515-.292-5.826-2.252-4.917-4.175.493-1.038 2.162-2.032 3.923-2.326.289-.043.578-.095.634-.11s.691-.015 1.41 0c.978.023 1.45.066 1.901.169z"/><path d="M10.693 12.579c-.437.147-.733.337-1.127.732-.346.329-.374.716-.085.95.268.219.521.19.845-.095.409-.358.726-.504 1.121-.504.394-.008.697.131 1.119.504.324.285.578.314.846.095.141-.117.183-.212.183-.432 0-.227-.049-.329-.297-.578-.697-.701-1.732-.972-2.606-.673zm8.213-.007c-.45.168-1.028.548-1.26.833-.226.278-.233.592 0 .827.232.248.514.233.852-.044.831-.688 1.451-.709 2.219-.073.197.169.422.3.493.3.345 0 .627-.307.627-.673 0-.233-.585-.775-1.113-1.031-.585-.285-1.282-.336-1.817-.138zm-7.191 13.534c-.204.197-.275.483-.169.709.078.183.197.256.683.387.219.058.31.131.387.314.099.242.106.242.649.264l.542.022v-.205c-.007-.292-.169-.716-.381-1.008-.246-.337-.676-.556-1.162-.6-.331-.029-.415-.015-.549.118zm6.727-.052c-.352.095-.859.571-1 .943-.07.196-.118.423-.134.658v.008c-.014.314.014.387.183.541.415.365.965.08.965-.505 0-.285.211-.483.585-.555.394-.073.535-.233.542-.607 0-.489-.437-.68-1.142-.483z"/></symbol><symbol id="facebook" viewBox="0 0 32 32"><path fill="#f8d24e" style="fill:var(--color1,#f8d24e)" d="M16 32c8.837 0 16-7.163 16-16S24.837 0 16 0 0 7.163 0 16s7.163 16 16 16z"/><path fill="#84a178" style="fill:var(--color2,#84a178)" d="M20.446 15.981h-2.611V25.6H13.88v-9.619H12v-3.379h1.88v-2.187c0-1.564.739-4.014 3.991-4.014l2.929.012v3.281h-2.125c-.348 0-.839.176-.839.922v1.989h2.955l-.345 3.377z"/></symbol><symbol id="telegram" viewBox="0 0 32 32"><path fill="#f8d24e" style="fill:var(--color1,#f8d24e)" d="M32 16c0 8.837-7.163 16-16 16S0 24.837 0 16 7.163 0 16 0s16 7.163 16 16z"/><path fill="#84a178" style="fill:var(--color2,#84a178)" d="m12.869 18.376-.318 4.169c.455 0 .651-.183.888-.401l2.131-1.901 4.414 3.018c.809.421 1.38.199 1.598-.696l2.899-12.673c.257-1.117-.433-1.554-1.222-1.28L6.227 14.698c-1.162.422-1.144 1.026-.198 1.301l4.355 1.264 10.115-5.907c.475-.295.908-.132.552.163l-8.182 6.856z"/></symbol><symbol id="github" viewBox="0 0 32 32"><path fill="#f8d24e" style="fill:var(--color1,#f8d24e)" d="M32 16c0 8.837-7.163 16-16 16S0 24.837 0 16 7.163 0 16 0s16 7.163 16 16z"/><path fill="#84a178" style="fill:var(--color2,#84a178)" d="M16 6.588c-5.17 0-9.412 4.242-9.412 9.412 0 4.411 3.096 8.419 7.206 9.412v-3.113a2.314 2.314 0 0 1-1.196-.031c-.556-.164-1.008-.535-1.344-1.099-.214-.36-.593-.753-.988-.724l-.097-1.098c.856-.073 1.594.521 2.033 1.258.196.328.421.52.709.605.278.083.577.043.925-.08.088-.697.408-.958.649-1.327-2.452-.365-3.429-1.666-3.816-2.692-.514-1.364-.238-3.066.67-4.143.018-.021.05-.075.038-.113-.417-1.259.09-2.3.109-2.41.481.141.559-.143 2.089.786l.264.159c.111.066.075.028.186.019a7.787 7.787 0 0 1 1.97-.276h.006a8.021 8.021 0 0 1 2.002.284l.086.009c-.008-.002.024-.006.075-.037 1.911-1.158 1.842-.779 2.355-.946.019.111.519 1.169.106 2.411-.056.171 1.656 1.739.708 4.256-.388 1.026-1.365 2.328-3.816 2.693.314.48.692.734.69 1.722v3.886c4.109-.993 7.206-5 7.206-9.412 0-5.17-4.242-9.412-9.412-9.412z"/></symbol><symbol id="points-desktop" viewBox="0 0 100 32"><path fill="#f8d24e" style="fill:var(--color1,#f8d24e)" d="M45.81 25.797c0 .287-.219.52-.488.52s-.488-.233-.488-.52c0-.287.219-.52.488-.52s.488.233.488.52zM46.949 25.104c0 .287-.219.52-.488.52s-.488-.233-.488-.52c0-.287.219-.52.488-.52s.488.233.488.52zM44.915 27.705c0 .287-.219.52-.488.52s-.488-.233-.488-.52c0-.287.219-.52.488-.52s.488.233.488.52zM45.972 27.011c0 .287-.219.52-.488.52s-.488-.233-.488-.52c0-.287.219-.52.488-.52s.488.233.488.52zM47.193 26.231c0 .287-.219.52-.488.52s-.488-.233-.488-.52c0-.287.219-.52.488-.52s.488.233.488.52zM48.332 25.537c0 .287-.219.52-.488.52s-.488-.233-.488-.52c0-.287.219-.52.488-.52s.488.233.488.52z"/><path fill="#f8d24e" style="fill:var(--color1,#f8d24e)" d="M46.705 27.792c0 .287-.219.52-.488.52s-.488-.233-.488-.52c0-.287.219-.52.488-.52s.488.233.488.52zM47.762 27.098c0 .287-.219.52-.488.52s-.488-.233-.488-.52c0-.287.219-.52.488-.52s.488.233.488.52zM48.983 26.318c0 .287-.219.52-.488.52s-.488-.233-.488-.52c0-.287.219-.52.488-.52s.488.233.488.52zM50.122 25.624c0 .287-.219.52-.488.52s-.488-.233-.488-.52c0-.287.219-.52.488-.52s.488.233.488.52zM48.82 27.792c0 .287-.219.52-.488.52s-.488-.233-.488-.52c0-.287.219-.52.488-.52s.488.233.488.52zM49.878 27.098c0 .287-.219.52-.488.52s-.488-.233-.488-.52c0-.287.219-.52.488-.52s.488.233.488.52zM51.098 26.318c0 .287-.219.52-.488.52s-.488-.233-.488-.52c0-.287.219-.52.488-.52s.488.233.488.52zM52.238 25.624c0 .287-.219.52-.488.52s-.488-.233-.488-.52c0-.287.219-.52.488-.52s.488.233.488.52z"/><path fill="#f8d24e" style="fill:var(--color1,#f8d24e)" d="M50.61 27.705c0 .287-.219.52-.488.52s-.488-.233-.488-.52c0-.287.219-.52.488-.52s.488.233.488.52zM51.668 27.011c0 .287-.219.52-.488.52s-.488-.233-.488-.52c0-.287.219-.52.488-.52s.488.233.488.52zM52.889 26.231c0 .287-.219.52-.488.52s-.488-.233-.488-.52c0-.287.219-.52.488-.52s.488.233.488.52zM54.028 25.537c0 .287-.219.52-.488.52s-.488-.233-.488-.52c0-.287.219-.52.488-.52s.488.233.488.52zM52.644 27.618c0 .287-.219.52-.488.52s-.488-.233-.488-.52c0-.287.219-.52.488-.52s.488.233.488.52zM53.702 26.925c0 .287-.219.52-.488.52s-.488-.233-.488-.52c0-.287.219-.52.488-.52s.488.233.488.52zM54.923 26.144c0 .287-.219.52-.488.52s-.488-.233-.488-.52c0-.287.219-.52.488-.52s.488.233.488.52zM56.062 25.45c0 .287-.219.52-.488.52s-.488-.233-.488-.52c0-.287.219-.52.488-.52s.488.233.488.52z"/><path fill="#f8d24e" style="fill:var(--color1,#f8d24e)" d="M54.516 25.364c0 .287-.219.52-.488.52s-.488-.233-.488-.52c0-.287.219-.52.488-.52s.488.233.488.52zM55.574 24.67c0 .287-.219.52-.488.52s-.488-.233-.488-.52c0-.287.219-.52.488-.52s.488.233.488.52zM56.794 23.889c0 .287-.219.52-.488.52s-.488-.233-.488-.52c0-.287.219-.52.488-.52s.488.233.488.52zM57.933 23.196c0 .287-.219.52-.488.52s-.488-.233-.488-.52c0-.287.219-.52.488-.52s.488.233.488.52z"/></symbol><symbol id="points-tablet" viewBox="0 0 356 32"><path fill="#f8d24e" style="fill:var(--color1,#f8d24e)" d="M306.022 29.57c0 1.021-.832 1.849-1.857 1.849s-1.857-.828-1.857-1.849.832-1.849 1.857-1.849 1.857.828 1.857 1.849zM309.737 27.258c0 1.021-.832 1.849-1.857 1.849s-1.857-.828-1.857-1.849.832-1.849 1.857-1.849 1.857.828 1.857 1.849zM314.38 24.485c0 1.021-.832 1.849-1.857 1.849s-1.857-.828-1.857-1.849.832-1.849 1.857-1.849 1.857.828 1.857 1.849zM318.095 22.173c0 1.021-.832 1.849-1.857 1.849s-1.857-.828-1.857-1.849.832-1.849 1.857-1.849 1.857.828 1.857 1.849zM315.773 28.646c0 1.021-.832 1.849-1.857 1.849s-1.857-.828-1.857-1.849.832-1.849 1.857-1.849 1.857.828 1.857 1.849zM319.488 26.334c0 1.021-.832 1.849-1.857 1.849s-1.857-.828-1.857-1.849.832-1.849 1.857-1.849 1.857.828 1.857 1.849zM324.132 23.56c0 1.021-.832 1.849-1.857 1.849s-1.857-.828-1.857-1.849.832-1.849 1.857-1.849 1.857.828 1.857 1.849zM327.847 21.248c0 1.021-.832 1.849-1.857 1.849s-1.857-.828-1.857-1.849.832-1.849 1.857-1.849 1.857.828 1.857 1.849zM324.132 27.721c0 1.021-.832 1.849-1.857 1.849s-1.857-.828-1.857-1.849.832-1.849 1.857-1.849 1.857.828 1.857 1.849zM327.847 25.409c0 1.021-.832 1.849-1.857 1.849s-1.857-.828-1.857-1.849.832-1.849 1.857-1.849 1.857.828 1.857 1.849zM332.491 22.635c0 1.021-.832 1.849-1.857 1.849s-1.857-.828-1.857-1.849.832-1.849 1.857-1.849 1.857.828 1.857 1.849zM336.206 20.323c0 1.021-.832 1.849-1.857 1.849s-1.857-.828-1.857-1.849.832-1.849 1.857-1.849 1.857.828 1.857 1.849zM332.491 26.334c0 1.021-.832 1.849-1.857 1.849s-1.857-.828-1.857-1.849.832-1.849 1.857-1.849 1.857.828 1.857 1.849zM336.206 24.022c0 1.021-.832 1.849-1.857 1.849s-1.857-.828-1.857-1.849.832-1.849 1.857-1.849 1.857.828 1.857 1.849zM340.85 21.248c0 1.021-.832 1.849-1.857 1.849s-1.857-.828-1.857-1.849.832-1.849 1.857-1.849 1.857.828 1.857 1.849zM344.564 18.936c0 1.021-.832 1.849-1.857 1.849s-1.857-.828-1.857-1.849.832-1.849 1.857-1.849 1.857.828 1.857 1.849zM334.813 29.57c0 1.021-.832 1.849-1.857 1.849s-1.857-.828-1.857-1.849.832-1.849 1.857-1.849 1.857.828 1.857 1.849zM338.528 27.258c0 1.021-.832 1.849-1.857 1.849s-1.857-.828-1.857-1.849.832-1.849 1.857-1.849 1.857.828 1.857 1.849zM343.636 30.033c0 1.021-.832 1.849-1.857 1.849s-1.857-.828-1.857-1.849.832-1.849 1.857-1.849 1.857.828 1.857 1.849zM343.171 24.485c0 1.021-.832 1.849-1.857 1.849s-1.857-.828-1.857-1.849.832-1.849 1.857-1.849 1.857.828 1.857 1.849zM348.279 27.258c0 1.021-.832 1.849-1.857 1.849s-1.857-.828-1.857-1.849.832-1.849 1.857-1.849 1.857.828 1.857 1.849zM352.459 30.033c0 1.021-.832 1.849-1.857 1.849s-1.857-.828-1.857-1.849.832-1.849 1.857-1.849 1.857.828 1.857 1.849zM346.887 22.173c0 1.021-.832 1.849-1.857 1.849s-1.857-.828-1.857-1.849.832-1.849 1.857-1.849 1.857.828 1.857 1.849zM352.459 24.947c0 1.021-.832 1.849-1.857 1.849s-1.857-.828-1.857-1.849.832-1.849 1.857-1.849 1.857.828 1.857 1.849zM356.174 27.721c0 1.021-.832 1.849-1.857 1.849s-1.857-.828-1.857-1.849.832-1.849 1.857-1.849 1.857.828 1.857 1.849zM288.376 10.151c0 1.021-.832 1.849-1.857 1.849s-1.857-.828-1.857-1.849.832-1.849 1.857-1.849 1.857.828 1.857 1.849zM292.09 7.839c0 1.021-.832 1.849-1.857 1.849s-1.857-.828-1.857-1.849.832-1.849 1.857-1.849 1.857.828 1.857 1.849zM296.734 5.065c0 1.021-.832 1.849-1.857 1.849s-1.857-.828-1.857-1.849.832-1.849 1.857-1.849 1.857.828 1.857 1.849zM300.449 2.753c0 1.021-.832 1.85-1.857 1.85s-1.857-.828-1.857-1.849.832-1.849 1.857-1.849 1.857.828 1.857 1.849zM280.946 9.689c0 1.021-.832 1.85-1.857 1.85s-1.857-.828-1.857-1.849.832-1.849 1.857-1.849 1.857.828 1.857 1.849zM284.66 7.377c0 1.021-.832 1.849-1.857 1.849s-1.857-.828-1.857-1.849.832-1.849 1.857-1.849 1.857.828 1.857 1.849zM289.304 4.602c0 1.021-.832 1.849-1.857 1.849s-1.857-.828-1.857-1.849.832-1.849 1.857-1.849 1.857.828 1.857 1.849zM293.019 2.291c0 1.021-.832 1.849-1.857 1.849s-1.857-.828-1.857-1.849.832-1.849 1.857-1.849 1.857.828 1.857 1.849zM297.198 29.57c0 1.021-.832 1.849-1.857 1.849s-1.857-.828-1.857-1.849.832-1.849 1.857-1.849 1.857.828 1.857 1.849zM300.914 27.258c0 1.021-.832 1.849-1.857 1.849s-1.857-.828-1.857-1.849.832-1.849 1.857-1.849 1.857.828 1.857 1.849zM305.557 24.485c0 1.021-.832 1.849-1.857 1.849s-1.857-.828-1.857-1.849.832-1.849 1.857-1.849 1.857.828 1.857 1.849zM309.272 22.173c0 1.021-.832 1.849-1.857 1.849s-1.857-.828-1.857-1.849.832-1.849 1.857-1.849 1.857.828 1.857 1.849zM292.555 28.183c0 1.021-.832 1.849-1.857 1.849s-1.857-.828-1.857-1.849.832-1.849 1.857-1.849 1.857.828 1.857 1.849zM296.269 25.871c0 1.021-.832 1.849-1.857 1.849s-1.857-.828-1.857-1.849.832-1.849 1.857-1.849 1.857.828 1.857 1.849zM300.914 23.098c0 1.021-.832 1.849-1.857 1.849s-1.857-.828-1.857-1.849.832-1.849 1.857-1.849 1.857.828 1.857 1.849zM304.628 20.786c0 1.021-.832 1.849-1.857 1.849s-1.857-.828-1.857-1.849.832-1.849 1.857-1.849 1.857.828 1.857 1.849zM294.413 21.71c0 1.021-.832 1.849-1.857 1.849s-1.857-.828-1.857-1.849.832-1.849 1.857-1.849 1.857.828 1.857 1.849zM298.127 19.398c0 1.021-.832 1.849-1.857 1.849s-1.857-.828-1.857-1.849.832-1.849 1.857-1.849 1.857.828 1.857 1.849zM302.771 16.624c0 1.021-.832 1.849-1.857 1.849s-1.857-.828-1.857-1.849.832-1.849 1.857-1.849 1.857.828 1.857 1.849zM306.486 14.312c0 1.021-.832 1.849-1.857 1.849s-1.857-.828-1.857-1.849.832-1.849 1.857-1.849 1.857.828 1.857 1.849zM294.413 11.076c0 1.021-.832 1.849-1.857 1.849s-1.857-.828-1.857-1.849.832-1.849 1.857-1.849 1.857.828 1.857 1.849zM298.127 8.764c0 1.021-.832 1.849-1.857 1.849s-1.857-.828-1.857-1.849.832-1.849 1.857-1.849 1.857.828 1.857 1.849zM302.771 5.99c0 1.021-.832 1.849-1.857 1.849s-1.857-.828-1.857-1.849.832-1.849 1.857-1.849 1.857.828 1.857 1.849zM306.486 3.678c0 1.021-.832 1.849-1.857 1.849s-1.857-.828-1.857-1.849.832-1.849 1.857-1.849 1.857.828 1.857 1.849zM293.484 17.087c0 1.021-.832 1.849-1.857 1.849s-1.857-.828-1.857-1.849.832-1.849 1.857-1.849 1.857.828 1.857 1.849zM297.198 14.775c0 1.021-.832 1.85-1.857 1.85s-1.857-.828-1.857-1.849.832-1.849 1.857-1.849 1.857.828 1.857 1.849zM301.842 12c0 1.021-.832 1.849-1.857 1.849s-1.857-.828-1.857-1.849.832-1.849 1.857-1.849 1.857.828 1.857 1.849zM305.557 9.689c0 1.021-.832 1.85-1.857 1.85s-1.857-.828-1.857-1.849.832-1.849 1.857-1.849 1.857.828 1.857 1.849zM274.909 8.301c0 1.021-.728 1.85-1.625 1.85s-1.625-.828-1.625-1.849.728-1.849 1.625-1.849 1.625.828 1.625 1.849zM278.624 5.99c0 1.021-.728 1.849-1.625 1.849s-1.625-.828-1.625-1.849.728-1.849 1.625-1.849 1.625.828 1.625 1.849zM283.268 3.215c0 1.021-.728 1.85-1.625 1.85s-1.625-.828-1.625-1.849.728-1.849 1.625-1.849 1.625.828 1.625 1.849z"/><path fill="#f8d24e" style="fill:var(--color1,#f8d24e)" d="M281.178 10.151c.898 0 1.625-.828 1.625-1.849s-.728-1.849-1.625-1.849-1.625.828-1.625 1.849.728 1.849 1.625 1.849zM3.715 27.362a1.856 1.856 0 1 1-3.712-.002 1.856 1.856 0 0 1 3.712.002zM7.43 25.043a1.856 1.856 0 1 1-3.712-.002 1.856 1.856 0 0 1 3.712.002zM12.074 22.261a1.856 1.856 0 1 1-3.712-.002 1.856 1.856 0 0 1 3.712.002zM15.789 19.942a1.856 1.856 0 1 1-3.712-.002 1.856 1.856 0 0 1 3.712.002zM26.005 28.29a1.856 1.856 0 1 1-3.712-.002 1.856 1.856 0 0 1 3.712.002zM29.72 25.971a1.856 1.856 0 1 1-3.712-.002 1.856 1.856 0 0 1 3.712.002zM34.363 23.188a1.856 1.856 0 1 1-3.712-.002 1.856 1.856 0 0 1 3.712.002zM38.079 20.87a1.856 1.856 0 1 1-3.712-.002 1.856 1.856 0 0 1 3.712.002z"/><path fill="#f8d24e" style="fill:var(--color1,#f8d24e)" d="M34.364 26.899c0 1.025-.728 1.855-1.626 1.855s-1.625-.831-1.625-1.855c0-1.025.728-1.855 1.625-1.855s1.626.831 1.626 1.855zM38.079 24.58c0 1.025-.728 1.855-1.626 1.855s-1.626-.831-1.626-1.855c0-1.025.728-1.855 1.626-1.855s1.626.831 1.626 1.855zM42.258 22.261c0 1.025-.728 1.855-1.626 1.855s-1.626-.831-1.626-1.855c0-1.025.728-1.855 1.626-1.855s1.626.831 1.626 1.855zM46.438 19.942c0 1.025-.728 1.855-1.626 1.855s-1.626-.831-1.626-1.855c0-1.025.728-1.855 1.626-1.855s1.626.831 1.626 1.855zM51.081 16.232c0 1.025-.728 1.855-1.626 1.855s-1.626-.831-1.626-1.855c0-1.025.728-1.855 1.626-1.855s1.626.831 1.626 1.855zM41.33 18.087c0 1.025-.728 1.855-1.626 1.855s-1.626-.831-1.626-1.855c0-1.025.728-1.855 1.626-1.855s1.626.831 1.626 1.855zM17.646 28.29a1.856 1.856 0 1 1-3.712-.002 1.856 1.856 0 0 1 3.712.002zM21.361 25.971a1.856 1.856 0 1 1-3.712-.002 1.856 1.856 0 0 1 3.712.002zM26.005 23.188a1.856 1.856 0 1 1-3.712-.002 1.856 1.856 0 0 1 3.712.002zM29.72 20.87a1.856 1.856 0 1 1-3.712-.002 1.856 1.856 0 0 1 3.712.002zM10.216 27.826a1.856 1.856 0 1 1-3.712-.002 1.856 1.856 0 0 1 3.712.002zM13.931 25.507a1.856 1.856 0 1 1-3.712-.002 1.856 1.856 0 0 1 3.712.002zM18.575 22.725a1.856 1.856 0 1 1-3.712-.002 1.856 1.856 0 0 1 3.712.002zM22.29 20.406a1.856 1.856 0 1 1-3.712-.002 1.856 1.856 0 0 1 3.712.002z"/></symbol><symbol id="points-mobile" viewBox="0 0 205 32"><path fill="#f8d24e" style="fill:var(--color1,#f8d24e)" d="M156.54 29.617c0 .982-.745 1.779-1.664 1.779s-1.664-.796-1.664-1.779c0-.982.745-1.779 1.664-1.779s1.664.796 1.664 1.779zM160.146 27.245c0 .982-.745 1.779-1.664 1.779s-1.664-.796-1.664-1.779c0-.982.745-1.779 1.664-1.779s1.664.796 1.664 1.779zM164.305 24.578c0 .982-.745 1.779-1.664 1.779s-1.664-.796-1.664-1.779c0-.982.745-1.779 1.664-1.779s1.664.796 1.664 1.779zM168.189 22.207c0 .982-.745 1.779-1.664 1.779s-1.664-.796-1.664-1.779c0-.982.745-1.779 1.664-1.779s1.664.796 1.664 1.779zM165.969 28.431c0 .982-.745 1.779-1.664 1.779s-1.664-.796-1.664-1.779c0-.982.745-1.779 1.664-1.779s1.664.796 1.664 1.779zM169.575 26.06c0 .982-.745 1.779-1.664 1.779s-1.664-.796-1.664-1.779c0-.982.745-1.779 1.664-1.779s1.664.796 1.664 1.779zM173.734 23.392c0 .982-.745 1.779-1.664 1.779s-1.664-.796-1.664-1.779c0-.982.745-1.779 1.664-1.779s1.664.796 1.664 1.779zM177.619 21.021c0 .982-.745 1.779-1.664 1.779s-1.664-.796-1.664-1.779c0-.982.745-1.779 1.664-1.779s1.664.796 1.664 1.779zM174.013 27.542c0 .982-.745 1.779-1.664 1.779s-1.664-.796-1.664-1.779c0-.982.745-1.779 1.664-1.779s1.664.796 1.664 1.779zM177.619 25.171c0 .982-.745 1.779-1.664 1.779s-1.664-.796-1.664-1.779c0-.982.745-1.779 1.664-1.779s1.664.796 1.664 1.779zM181.779 22.503c0 .982-.745 1.779-1.664 1.779s-1.664-.796-1.664-1.779c0-.982.745-1.779 1.664-1.779s1.664.796 1.664 1.779zM185.661 20.132c0 .982-.745 1.779-1.664 1.779s-1.664-.796-1.664-1.779c0-.982.745-1.779 1.664-1.779s1.664.796 1.664 1.779zM181.778 26.356c0 .982-.745 1.779-1.664 1.779s-1.664-.796-1.664-1.779c0-.982.745-1.779 1.664-1.779s1.664.796 1.664 1.779zM185.383 23.985c0 .982-.745 1.779-1.664 1.779s-1.664-.796-1.664-1.779c0-.982.745-1.779 1.664-1.779s1.664.796 1.664 1.779zM189.543 21.318c0 .982-.745 1.779-1.664 1.779s-1.664-.796-1.664-1.779c0-.982.745-1.779 1.664-1.779s1.664.796 1.664 1.779zM193.427 18.947c0 .982-.745 1.779-1.664 1.779s-1.664-.796-1.664-1.779c0-.982.745-1.779 1.664-1.779s1.664.796 1.664 1.779zM184.276 29.617c0 .982-.745 1.779-1.664 1.779s-1.664-.796-1.664-1.779c0-.982.745-1.779 1.664-1.779s1.664.796 1.664 1.779zM187.882 27.245c0 .982-.745 1.779-1.664 1.779s-1.664-.796-1.664-1.779c0-.982.745-1.779 1.664-1.779s1.664.796 1.664 1.779zM192.874 29.913c0 .982-.745 1.779-1.664 1.779s-1.664-.796-1.664-1.779c0-.982.745-1.779 1.664-1.779s1.664.796 1.664 1.779zM192.042 24.578c0 .982-.745 1.779-1.664 1.779s-1.664-.796-1.664-1.779c0-.982.745-1.779 1.664-1.779s1.664.796 1.664 1.779zM197.034 27.245c0 .982-.745 1.779-1.664 1.779s-1.664-.796-1.664-1.779c0-.982.745-1.779 1.664-1.779s1.664.796 1.664 1.779zM200.918 29.913c0 .982-.745 1.779-1.664 1.779s-1.664-.796-1.664-1.779c0-.982.745-1.779 1.664-1.779s1.664.796 1.664 1.779zM195.925 22.207c0 .982-.745 1.779-1.664 1.779s-1.664-.796-1.664-1.779c0-.982.745-1.779 1.664-1.779s1.664.796 1.664 1.779zM200.918 24.874c0 .982-.745 1.779-1.664 1.779s-1.664-.796-1.664-1.779c0-.982.745-1.779 1.664-1.779s1.664.796 1.664 1.779zM204.801 27.542c0 .982-.745 1.779-1.664 1.779s-1.664-.796-1.664-1.779c0-.982.745-1.779 1.664-1.779s1.664.796 1.664 1.779zM139.622 10.055c0 .982-.745 1.779-1.664 1.779s-1.664-.796-1.664-1.779c0-.982.745-1.779 1.664-1.779s1.664.796 1.664 1.779zM143.227 7.684c0 .982-.745 1.779-1.664 1.779s-1.664-.796-1.664-1.779c0-.982.745-1.779 1.664-1.779s1.664.796 1.664 1.779zM147.388 5.016c0 .982-.745 1.779-1.664 1.779s-1.664-.796-1.664-1.779c0-.982.745-1.779 1.664-1.779s1.664.796 1.664 1.779zM151.27 2.645c0 .982-.745 1.779-1.664 1.779s-1.664-.796-1.664-1.779c0-.982.745-1.779 1.664-1.779s1.664.796 1.664 1.779zM132.687 9.758c0 .982-.745 1.779-1.664 1.779s-1.664-.796-1.664-1.779c0-.982.745-1.779 1.664-1.779s1.664.796 1.664 1.779zM136.292 7.387c0 .982-.745 1.779-1.664 1.779s-1.664-.796-1.664-1.779c0-.982.745-1.779 1.664-1.779s1.664.796 1.664 1.779zM140.452 4.72c0 .982-.745 1.779-1.664 1.779s-1.664-.796-1.664-1.779c0-.982.745-1.779 1.664-1.779s1.664.796 1.664 1.779zM144.335 2.349c0 .982-.745 1.779-1.664 1.779s-1.664-.796-1.664-1.779c0-.982.745-1.779 1.664-1.779s1.664.796 1.664 1.779zM148.219 29.617c0 .982-.745 1.779-1.664 1.779s-1.664-.796-1.664-1.779c0-.982.745-1.779 1.664-1.779s1.664.796 1.664 1.779zM151.824 27.245c0 .982-.745 1.779-1.664 1.779s-1.664-.796-1.664-1.779c0-.982.745-1.779 1.664-1.779s1.664.796 1.664 1.779zM155.984 24.578c0 .982-.745 1.779-1.664 1.779s-1.664-.796-1.664-1.779c0-.982.745-1.779 1.664-1.779s1.664.796 1.664 1.779zM159.868 22.207c0 .982-.745 1.779-1.664 1.779s-1.664-.796-1.664-1.779c0-.982.745-1.779 1.664-1.779s1.664.796 1.664 1.779zM143.781 27.839c0 .982-.745 1.779-1.664 1.779s-1.664-.796-1.664-1.779c0-.982.745-1.779 1.664-1.779s1.664.796 1.664 1.779zM147.387 25.468c0 .982-.745 1.779-1.664 1.779s-1.664-.796-1.664-1.779c0-.982.745-1.779 1.664-1.779s1.664.796 1.664 1.779zM151.547 22.799c0 .982-.745 1.779-1.664 1.779s-1.664-.796-1.664-1.779c0-.982.745-1.779 1.664-1.779s1.664.796 1.664 1.779zM155.43 20.429c0 .982-.745 1.779-1.664 1.779s-1.664-.796-1.664-1.779c0-.982.745-1.779 1.664-1.779s1.664.796 1.664 1.779zM145.446 21.614c0 .982-.745 1.779-1.664 1.779s-1.664-.796-1.664-1.779c0-.982.745-1.779 1.664-1.779s1.664.796 1.664 1.779zM149.051 19.243c0 .982-.745 1.779-1.664 1.779s-1.664-.796-1.664-1.779c0-.982.745-1.779 1.664-1.779s1.664.796 1.664 1.779zM153.212 16.575c0 .982-.745 1.779-1.664 1.779s-1.664-.796-1.664-1.779c0-.982.745-1.779 1.664-1.779s1.664.796 1.664 1.779zM157.094 14.204c0 .982-.745 1.779-1.664 1.779s-1.664-.796-1.664-1.779c0-.982.745-1.779 1.664-1.779s1.664.796 1.664 1.779zM145.446 11.24c0 .982-.745 1.779-1.664 1.779s-1.664-.796-1.664-1.779c0-.982.745-1.779 1.664-1.779s1.664.796 1.664 1.779zM149.051 8.869c0 .982-.745 1.779-1.664 1.779s-1.664-.796-1.664-1.779c0-.982.745-1.779 1.664-1.779s1.664.796 1.664 1.779zM153.212 6.202c0 .982-.745 1.779-1.664 1.779s-1.664-.796-1.664-1.779c0-.982.745-1.779 1.664-1.779s1.664.796 1.664 1.779zM157.094 3.83c0 .982-.745 1.779-1.664 1.779s-1.664-.796-1.664-1.779c0-.982.745-1.779 1.664-1.779s1.664.796 1.664 1.779zM144.613 16.872c0 .982-.745 1.779-1.664 1.779s-1.664-.796-1.664-1.779c0-.982.745-1.779 1.664-1.779s1.664.796 1.664 1.779zM148.22 14.5c0 .982-.745 1.779-1.664 1.779s-1.664-.796-1.664-1.779c0-.982.745-1.779 1.664-1.779s1.664.796 1.664 1.779zM152.379 11.834c0 .982-.745 1.779-1.664 1.779s-1.664-.796-1.664-1.779c0-.982.745-1.779 1.664-1.779s1.664.796 1.664 1.779zM156.262 9.462c0 .982-.745 1.779-1.664 1.779s-1.664-.796-1.664-1.779c0-.982.745-1.779 1.664-1.779s1.664.796 1.664 1.779zM127.14 8.276c0 .982-.745 1.779-1.664 1.779s-1.664-.796-1.664-1.779c0-.982.745-1.779 1.664-1.779s1.664.796 1.664 1.779zM130.746 5.905c0 .982-.745 1.779-1.664 1.779s-1.664-.796-1.664-1.779c0-.982.745-1.779 1.664-1.779s1.664.796 1.664 1.779zM134.906 3.238c0 .982-.745 1.779-1.664 1.779s-1.664-.796-1.664-1.779c0-.982.745-1.779 1.664-1.779s1.664.796 1.664 1.779z"/><path fill="#f8d24e" style="fill:var(--color1,#f8d24e)" d="M132.964 10.054c.919 0 1.665-.796 1.665-1.778s-.746-1.779-1.665-1.779-1.664.796-1.664 1.779c0 .982.745 1.778 1.664 1.778zM56.441 21.475c.141.985-.491 1.907-1.413 2.058s-1.784-.525-1.925-1.511c-.141-.985.491-1.907 1.413-2.058s1.784.525 1.925 1.511zM59.717 18.504c.141.985-.491 1.907-1.413 2.058s-1.784-.525-1.925-1.511c-.141-.985.491-1.907 1.413-2.058s1.784.525 1.925 1.511zM63.506 15.144c.141.985-.491 1.906-1.413 2.058s-1.784-.525-1.925-1.511c-.141-.985.491-1.906 1.413-2.058s1.784.525 1.925 1.511zM67.06 12.128c.141.985-.491 1.906-1.413 2.058s-1.784-.525-1.925-1.511c-.141-.985.491-1.906 1.413-2.058s1.784.525 1.925 1.511zM3.482 21.473c0 .997-.779 1.805-1.741 1.805S0 22.47 0 21.473c0-.997.779-1.805 1.741-1.805s1.741.808 1.741 1.805zM7.252 19.067c0 .997-.779 1.805-1.741 1.805s-1.741-.808-1.741-1.805c0-.997.779-1.805 1.741-1.805s1.741.808 1.741 1.805zM11.605 16.36c0 .997-.779 1.805-1.741 1.805s-1.741-.808-1.741-1.805c0-.997.779-1.805 1.741-1.805s1.741.808 1.741 1.805zM15.666 13.953c0 .997-.779 1.805-1.741 1.805s-1.741-.808-1.741-1.805c0-.997.779-1.805 1.741-1.805s1.741.808 1.741 1.805zM5.222 25.984c0 .997-.779 1.805-1.741 1.805s-1.741-.808-1.741-1.805c0-.997.779-1.805 1.741-1.805s1.741.808 1.741 1.805zM8.994 23.578c0 .997-.779 1.805-1.741 1.805s-1.741-.808-1.741-1.805c0-.997.779-1.805 1.741-1.805s1.741.808 1.741 1.805zM13.347 20.871c0 .997-.779 1.805-1.741 1.805s-1.741-.808-1.741-1.805c0-.997.779-1.805 1.741-1.805s1.741.808 1.741 1.805zM17.407 18.465c0 .997-.779 1.805-1.741 1.805s-1.741-.808-1.741-1.805c0-.997.779-1.805 1.741-1.805s1.741.808 1.741 1.805zM9.573 28.39c0 .997-.779 1.805-1.741 1.805s-1.741-.808-1.741-1.805c0-.997.779-1.805 1.741-1.805s1.741.808 1.741 1.805zM13.345 25.984c0 .997-.779 1.805-1.741 1.805s-1.741-.808-1.741-1.805c0-.997.779-1.805 1.741-1.805s1.741.808 1.741 1.805zM17.697 23.277c0 .997-.779 1.805-1.741 1.805s-1.741-.808-1.741-1.805c0-.997.779-1.805 1.741-1.805s1.741.808 1.741 1.805zM21.757 20.871c0 .997-.779 1.805-1.741 1.805s-1.741-.808-1.741-1.805c0-.997.779-1.805 1.741-1.805s1.741.808 1.741 1.805zM14.504 29.895c0 .997-.779 1.805-1.741 1.805s-1.741-.808-1.741-1.805c0-.997.779-1.805 1.741-1.805s1.741.808 1.741 1.805zM18.276 27.488c0 .997-.779 1.805-1.741 1.805s-1.741-.808-1.741-1.805c0-.997.779-1.805 1.741-1.805s1.741.808 1.741 1.805zM22.629 24.781c0 .997-.779 1.805-1.741 1.805s-1.741-.808-1.741-1.805c0-.997.779-1.805 1.741-1.805s1.741.808 1.741 1.805zM26.689 22.375c0 .997-.779 1.805-1.741 1.805s-1.741-.808-1.741-1.805c0-.997.779-1.805 1.741-1.805s1.741.808 1.741 1.805z"/><path fill="#f8d24e" style="fill:var(--color1,#f8d24e)" d="M20.888 30.196c0 .997-.779 1.805-1.741 1.805s-1.741-.808-1.741-1.805c0-.997.779-1.805 1.741-1.805s1.741.808 1.741 1.805zM24.659 27.789c0 .997-.779 1.805-1.741 1.805s-1.741-.808-1.741-1.805c0-.997.779-1.805 1.741-1.805s1.741.808 1.741 1.805zM29.011 25.082c0 .997-.779 1.805-1.741 1.805s-1.741-.808-1.741-1.805c0-.997.779-1.805 1.741-1.805s1.741.808 1.741 1.805zM33.072 22.676c0 .997-.779 1.805-1.741 1.805s-1.741-.808-1.741-1.805c0-.997.779-1.805 1.741-1.805s1.741.808 1.741 1.805zM28.431 30.195c0 .997-.779 1.805-1.741 1.805s-1.741-.808-1.741-1.805c0-.997.779-1.805 1.741-1.805s1.741.808 1.741 1.805zM32.202 27.789c0 .997-.779 1.805-1.741 1.805s-1.741-.808-1.741-1.805c0-.997.779-1.805 1.741-1.805s1.741.808 1.741 1.805zM36.554 25.082c0 .997-.779 1.805-1.741 1.805s-1.741-.808-1.741-1.805c0-.997.779-1.805 1.741-1.805s1.741.808 1.741 1.805zM40.616 22.676c0 .997-.779 1.805-1.741 1.805s-1.741-.808-1.741-1.805c0-.997.779-1.805 1.741-1.805s1.741.808 1.741 1.805z"/><path fill="#f8d24e" style="fill:var(--color1,#f8d24e)" d="M34.812 29.894c0 .997-.779 1.805-1.741 1.805s-1.741-.808-1.741-1.805c0-.997.779-1.805 1.741-1.805s1.741.808 1.741 1.805zM38.583 27.488c0 .997-.779 1.805-1.741 1.805s-1.741-.808-1.741-1.805c0-.997.779-1.805 1.741-1.805s1.741.808 1.741 1.805zM42.936 24.781c0 .997-.779 1.805-1.741 1.805s-1.741-.808-1.741-1.805c0-.997.779-1.805 1.741-1.805s1.741.808 1.741 1.805zM46.996 22.375c0 .997-.779 1.805-1.741 1.805s-1.741-.808-1.741-1.805c0-.997.779-1.805 1.741-1.805s1.741.808 1.741 1.805zM42.065 29.594c0 .997-.779 1.805-1.741 1.805s-1.741-.808-1.741-1.805c0-.997.779-1.805 1.741-1.805s1.741.808 1.741 1.805zM45.836 27.187c0 .997-.779 1.805-1.741 1.805s-1.741-.808-1.741-1.805c0-.997.779-1.805 1.741-1.805s1.741.808 1.741 1.805zM50.188 24.481c0 .997-.779 1.805-1.741 1.805s-1.741-.808-1.741-1.805c0-.997.779-1.805 1.741-1.805s1.741.808 1.741 1.805zM54.249 22.074c0 .997-.779 1.805-1.741 1.805s-1.741-.808-1.741-1.805c0-.997.779-1.805 1.741-1.805s1.741.808 1.741 1.805z"/><path fill="#f8d24e" style="fill:var(--color1,#f8d24e)" d="M48.737 21.773c0 .997-.779 1.805-1.741 1.805s-1.741-.808-1.741-1.805c0-.997.779-1.805 1.741-1.805s1.741.808 1.741 1.805zM52.508 19.367c0 .997-.779 1.805-1.741 1.805s-1.741-.808-1.741-1.805c0-.997.779-1.805 1.741-1.805s1.741.808 1.741 1.805zM56.86 16.66c0 .997-.779 1.805-1.741 1.805s-1.741-.808-1.741-1.805c0-.997.779-1.805 1.741-1.805s1.741.808 1.741 1.805zM60.922 14.254c0 .997-.779 1.805-1.741 1.805s-1.741-.808-1.741-1.805c0-.997.779-1.805 1.741-1.805s1.741.808 1.741 1.805z"/></symbol></defs></svg>