<svg aria-hidden="true" style="position: absolute; width: 0; height: 0; overflow: hidden;" version="1.1"
    xmlns="http://www.w3.org/2000/svg" xmlns:xlink="http://www.w3.org/1999/xlink">
    <defs>
        <!-- Logo -->
        <symbol id="logo" viewBox="0 0 34 32">
            <path
                d="M17.184 14.109c1.613-4.366-1.728-6.756-3.942-8.327-0.424-0.321-0.847-0.621-1.19-0.895-0.911-0.771-1.486-1.915-1.486-3.194 0-0.398 0.056-0.783 0.16-1.147l-0.007 0.029c0.010-0.036 0.016-0.078 0.016-0.12 0-0.22-0.157-0.404-0.364-0.446l-0.003-0.001c-0.027-0.006-0.059-0.009-0.091-0.009-0.055 0-0.109 0.010-0.158 0.028l0.003-0.001c-0.787 0.315-1.466 0.727-2.064 1.23l0.011-0.009c-1.157 0.896-1.897 2.285-1.901 3.846v0.001c-0.418 0.328-0.787 0.713-1.096 1.144-0.508 0.685-0.813 1.547-0.813 2.48 0 0.071 0.002 0.141 0.005 0.211l-0-0.010c-1.060 0.974-1.723 2.367-1.723 3.915 0 0.379 0.040 0.75 0.115 1.106l-0.006-0.035c-0.419 0.256-0.694 0.711-0.694 1.23 0 0.138 0.020 0.272 0.056 0.399l-0.002-0.010c0.176 0.608 0.728 1.046 1.382 1.046 0.004 0 0.009-0 0.013-0h0.029v2.483c0 0 0 0.001 0 0.002 0 0.524 0.425 0.949 0.949 0.949 0.001 0 0.002 0 0.004 0h0.741l1.208 10.429c0.053 0.477 0.454 0.845 0.94 0.845 0.001 0 0.003 0 0.004 0h5.021c0.488-0.001 0.89-0.367 0.949-0.84l0-0.005 1.207-10.429h0.741c0.525-0.001 0.95-0.425 0.952-0.95v-2.484h0.029c0.798-0 1.445-0.648 1.445-1.446 0-0.198-0.040-0.387-0.112-0.559l0.004 0.010c-0.072-0.177-0.18-0.336-0.316-0.47l-0.013 0.004zM6.315 6.188c0.61 2.285 2.964 3.183 5.111 3.987 0.070 0.045 0.155 0.071 0.247 0.071 0.255 0 0.461-0.207 0.461-0.461 0-0.227-0.164-0.415-0.379-0.454l-0.003-0c-2.312-0.875-4.493-1.689-4.657-4.024-0.005-0.071-0.007-0.153-0.007-0.236 0-1.267 0.605-2.393 1.542-3.105l0.010-0.007c0.323-0.267 0.668-0.505 1.033-0.709-0.011 0.131-0.018 0.285-0.018 0.439s0.006 0.308 0.019 0.459l-0.001-0.020c0.106 1.401 0.775 2.628 1.779 3.468l0.008 0.006c0.351 0.3 0.787 0.608 1.27 0.937 1.114 0.798 2.38 1.689 3.184 2.897 0.503 0.717 0.803 1.607 0.803 2.568 0 0.62-0.125 1.211-0.352 1.748l0.011-0.030h-1.871c-3.858 0-8.291-1.064-9.167-4.045-0.082-0.279-0.13-0.6-0.13-0.932 0-1.005 0.434-1.908 1.126-2.532l0.003-0.003-0.020-0.021zM9.787 20.583l1.415 1.41-1.415 1.411-1.415-1.419 1.415-1.401zM13.030 24.285l-1.168 1.165-1.415-1.411 1.415-1.406 1.228 1.221-0.059 0.43zM9.787 27.52l-1.415-1.411 1.415-1.41 1.415 1.41-1.415 1.411zM9.139 24.049l-1.414 1.411-1.176-1.174-0.051-0.422 1.227-1.221 1.415 1.406zM7.074 26.109l-0.284 0.283-0.072-0.642 0.355 0.359zM6.925 27.554l0.8-0.798 1.555 1.563c0.008 0.031 0.017 0.062 0.029 0.093h-2.287l-0.098-0.857zM11.854 26.755l0.8 0.798-0.098 0.845h-2.349l1.647-1.642zM12.786 26.393l-0.284-0.284 0.36-0.359-0.076 0.642zM13.208 22.702l-0.707-0.718 0.899-0.895-0.19 1.613zM11.85 21.342l-1.342-1.334h2.684l-1.341 1.334zM7.721 21.342l-1.343-1.334h2.685l-1.342 1.334zM12.294 30.361h-5.018c-0.015-0.002-0.028-0.014-0.029-0.029l-0-0-0.118-1.013h5.318l-0.115 1.013c-0.002 0.017-0.016 0.029-0.033 0.029-0 0-0 0-0 0v0h-0.005zM16.177 15.651h-1.474c-0.013-0.001-0.027-0.002-0.042-0.002-0.255 0-0.461 0.206-0.463 0.46v0c0 0 0 0 0 0.001 0 0.254 0.206 0.46 0.46 0.46 0.016 0 0.032-0.001 0.047-0.002l-0.002 0h0.525v2.483c-0.002 0.017-0.016 0.029-0.033 0.029-0 0-0 0-0 0v0h-10.828c-0 0-0 0-0 0-0.017 0-0.031-0.013-0.033-0.029l-0-0v-2.483h8.387c0.234-0.024 0.416-0.22 0.416-0.459 0-0.119-0.045-0.227-0.118-0.308l0 0c-0.075-0.082-0.179-0.138-0.296-0.149l-0.002-0h-9.315c-0.014 0.001-0.029 0.002-0.045 0.002-0.29 0-0.525-0.234-0.527-0.524v-0c0-0 0-0.001 0-0.002 0-0.288 0.234-0.522 0.522-0.522 0.018 0 0.035 0.001 0.053 0.003l-0.002-0h0.961c0.235-0.023 0.417-0.219 0.418-0.458v-0c-0-0.239-0.183-0.435-0.416-0.457l-0.002-0h-0.846c-0.050-0.252-0.079-0.542-0.079-0.839 0-1.078 0.378-2.067 1.008-2.844l-0.007 0.008c0.296 0.92 1.059 2.179 2.964 3.18 1.79 0.933 4.162 1.41 7.045 1.41h1.693c0.014-0.001 0.030-0.002 0.046-0.002 0.213 0 0.397 0.127 0.48 0.309l0.001 0.003c0.029 0.063 0.045 0.136 0.045 0.213 0 0.288-0.234 0.522-0.522 0.522-0.018 0-0.035-0.001-0.053-0.003l0.002 0h0.029zM19.859 28.392l-0.342 0.525 0.008 0.004 0.335-0.529zM23.54 28.568l0.627-0.013-0.017-0.724-0.714 0.12 0.105 0.617zM23.583 30.495l0.16 0.606 0.477-0.126-0.011-0.493-0.627 0.013zM18.752 30.588l0.141-0.611h-0.004l-0.136 0.611zM16.367 29.523v0zM15.505 27.565l0.626 0.003v-0.003h-0.626zM15.804 26.196l-0.562-0.277v0.002l0.562 0.275zM17.724 24.557l0.223 0.586 0.002-0.001-0.224-0.585zM23.877 24.397l0.624 0.049 0.042-0.529-0.515-0.127-0.151 0.607zM23.724 26.361l-0.116 0.615 0.686 0.131 0.055-0.697-0.625-0.048zM22.055 25.558c-0.94 0-1.731 0.1-2.307 0.354-0.296 0.13-0.564 0.313-0.76 0.572-0.187 0.244-0.299 0.554-0.299 0.89 0 0.005 0 0.011 0 0.016v-0.001h1.253c0-0.073 0.017-0.115 0.044-0.149 0.033-0.042 0.106-0.11 0.267-0.181 0.337-0.148 0.916-0.248 1.802-0.248v-1.253zM18.688 27.389c0 0.644 0.289 1.176 0.829 1.528l0.683-1.049c-0.185-0.121-0.259-0.259-0.259-0.478h-1.253zM19.524 28.921c0.511 0.323 1.187 0.445 1.944 0.445v-1.253c-0.654 0-1.052-0.11-1.274-0.251l-0.669 1.058zM21.468 29.367c0.743 0 1.469-0.061 2.178-0.18l-0.21-1.235c-0.585 0.103-1.259 0.163-1.947 0.163-0.007 0-0.015 0-0.022-0h0.001v1.253zM22.915 28.583l0.042 1.927 1.253-0.028-0.043-1.927-1.252 0.028zM23.424 29.89c-0.716 0.189-1.506 0.285-2.372 0.285v1.252c0.96 0 1.858-0.107 2.691-0.327l-0.319-1.211zM21.053 30.175c-0.884 0-1.6-0.070-2.159-0.199l-0.281 1.221c0.681 0.157 1.499 0.23 2.44 0.23v-1.252zM18.889 29.976c-0.598-0.133-1.029-0.275-1.317-0.416l-0.55 1.125c0.413 0.202 0.952 0.371 1.594 0.514l0.273-1.223zM17.572 29.56c-0.305-0.147-0.568-0.319-0.806-0.518l0.006 0.005-0.81 0.955c0.313 0.265 0.668 0.493 1.061 0.684l0.549-1.125zM16.772 29.045c-0.426-0.36-0.644-0.83-0.64-1.476l-1.253-0.006c-0.005 0.985 0.352 1.819 1.085 2.438l0.808-0.957zM16.132 27.565c0-0.421 0.082-0.781 0.236-1.095l-1.126-0.551c-0.23 0.468-0.364 1.018-0.364 1.6 0 0.016 0 0.032 0 0.048l-0-0.002h1.252zM16.367 26.472c0.285-0.579 0.788-1.029 1.581-1.331l-0.445-1.171c-1.034 0.392-1.811 1.036-2.26 1.948l1.124 0.553zM17.95 25.142c0.833-0.32 1.763-0.485 2.796-0.485v-1.252c-1.168 0-2.252 0.186-3.245 0.568l0.45 1.17zM20.746 24.657c1.054 0 2.047 0.118 2.981 0.349l0.301-1.215c-0.966-0.245-2.074-0.386-3.216-0.386-0.023 0-0.046 0-0.069 0h0.004v1.253zM23.253 24.349l-0.152 1.963 1.249 0.098 0.152-1.964-1.248-0.097zM23.842 25.746c-0.533-0.112-1.149-0.18-1.78-0.189l-0.006-0v1.253c0.44 0 0.957 0.053 1.553 0.166l0.233-1.229zM29.952 26.746l-0.003 0.627 0.637 0.003-0.007-0.637-0.627 0.007zM29.683 25.933l-0.426 0.459 0.006 0.005 0.421-0.463zM28.124 25.994l0.434 0.452 0.004-0.005-0.438-0.447zM27.745 26.734l-0.618-0.101-0.12 0.723 0.733 0.004 0.003-0.627zM32.349 30.073l0.379 0.499 0.225-0.171 0.021-0.281-0.625-0.047zM30.998 30.575l-0.135-0.612-0.003 0.001 0.138 0.611zM26.301 30.403l-0.213 0.589 0.005 0.002 0.208-0.591zM25.231 29.835l-0.389 0.491 0.008 0.006 0.381-0.497zM24.515 28.936l-0.562 0.278 0.002 0.003 0.56-0.28zM25.249 25.138v0zM30.973 24.459l0.25-0.574-0.006-0.003-0.244 0.577zM32.41 25.78l-0.563 0.274 0.002 0.003 0.561-0.278zM32.655 26.875l0.625 0.045 0.002-0.023v-0.023h-0.627zM32.582 27.884l-0.003 0.627 0.585 0.003 0.042-0.584-0.624-0.045zM27.622 27.859l0.003-0.627-0.817-0.003 0.208 0.79 0.605-0.16zM28.332 28.734l-0.309 0.545 0.003 0.002 0.306-0.547zM32.136 28.52v-0.626h-0.125l-0.115 0.048 0.241 0.578zM32.466 28.52l0.625 0.047 0.051-0.674h-0.675v0.627zM30.579 26.739c-0.005-0.453-0.109-0.939-0.475-1.271l-0.842 0.928c-0.007-0.007 0.008 0.002 0.025 0.056 0.019 0.057 0.037 0.153 0.039 0.301l1.253-0.013zM30.109 25.474c-0.328-0.305-0.76-0.406-1.185-0.406v1.253c0.244 0 0.318 0.059 0.333 0.071l0.852-0.918zM28.925 25.068c-0.467 0-0.9 0.147-1.24 0.479l0.877 0.894c0.068-0.067 0.168-0.12 0.362-0.12v-1.253zM27.689 25.542c-0.294 0.283-0.497 0.659-0.562 1.080l-0.001 0.011 1.236 0.203c0.020-0.154 0.091-0.289 0.195-0.39l0-0-0.867-0.904zM27.741 27.361l2.208 0.012 0.007-1.252-2.208-0.013-0.007 1.252zM31.971 29.575c-0.137 0.104-0.472 0.248-1.108 0.388l0.269 1.224c0.661-0.146 1.227-0.335 1.595-0.615l-0.756-0.997zM30.86 29.964c-0.525 0.127-1.129 0.202-1.75 0.205h-0.002v1.253c0.662 0 1.339-0.080 2.028-0.236l-0.276-1.221zM29.108 30.168c-0.59 0-1.076-0.028-1.464-0.080l-0.168 1.241c0.461 0.062 1.006 0.092 1.631 0.092v-1.253zM27.645 30.088c-0.381-0.051-0.758-0.143-1.135-0.275l-0.417 1.181c0.455 0.16 0.917 0.273 1.384 0.335l0.168-1.241zM26.515 29.815c-0.345-0.121-0.644-0.282-0.911-0.483l0.009 0.006-0.762 0.994c0.356 0.274 0.772 0.492 1.238 0.66l0.427-1.177zM25.619 29.343c-0.227-0.185-0.411-0.414-0.539-0.675l-0.005-0.012-1.12 0.56c0.22 0.441 0.514 0.815 0.887 1.11l0.777-0.982zM25.076 28.659c-0.131-0.267-0.211-0.61-0.211-1.050h-1.253c0 0.588 0.105 1.129 0.34 1.605l1.123-0.556zM24.866 27.608c0-0.44 0.080-0.829 0.23-1.176l-1.149-0.499c-0.211 0.482-0.334 1.043-0.334 1.634 0 0.014 0 0.028 0 0.043l-0-0.002h1.253zM25.096 26.433c0.158-0.364 0.351-0.632 0.57-0.827l-0.834-0.936c-0.376 0.335-0.668 0.764-0.885 1.264l1.149 0.499zM25.666 25.605c0.674-0.6 1.7-0.947 3.179-0.947v-1.253c-1.659 0-3.030 0.39-4.013 1.266l0.834 0.935zM28.845 24.658c0.664 0 1.29 0.126 1.884 0.378l0.489-1.154c-0.693-0.302-1.501-0.478-2.35-0.478-0.008 0-0.016 0-0.025 0h0.001v1.253zM30.723 25.033c0.555 0.242 0.913 0.584 1.125 1.021l1.126-0.547c-0.359-0.739-0.958-1.276-1.75-1.622l-0.501 1.149zM31.849 26.057c0.117 0.237 0.179 0.505 0.179 0.817h1.253c0-0.487-0.101-0.947-0.31-1.371l-1.123 0.554zM32.030 26.829l-0.073 1.009 1.25 0.091 0.073-1.009-1.25-0.091zM32.585 27.257l-4.96-0.024-0.007 1.253 4.96 0.024 0.007-1.253zM27.016 28.019c0.147 0.555 0.504 0.976 1.007 1.26l0.616-1.091c-0.248-0.14-0.362-0.302-0.412-0.488l-1.211 0.319zM28.025 29.281c0.509 0.284 1.144 0.397 1.853 0.397v-1.252c-0.595 0-0.99-0.099-1.241-0.239l-0.611 1.094zM29.878 29.678c0.762 0 1.599-0.206 2.499-0.58l-0.482-1.156c-0.805 0.335-1.474 0.484-2.016 0.484v1.252zM32.135 29.146h0.331v-1.252h-0.33v1.252zM31.841 28.473l-0.116 1.554 1.25 0.093 0.116-1.553-1.25-0.093z">
            </path>
        </symbol>

        <!-- About icons -->
        <symbol id="ice-crema" viewBox="0 0 32 32">
            <path
                d="M16.108 0.107c0.080 0.215 0.241 1.252 0.241 1.573 0 0.003 0 0.007 0 0.011 0 0.818-0.318 1.561-0.838 2.114l0.001-0.002c-0.449 0.482-0.898 0.749-1.975 1.185-1.198 0.489-1.694 0.783-2.256 1.339-0.569 0.569-0.904 1.191-1.024 1.922-0.134 0.796 0 1.358 0.408 1.68l0.207 0.16-0.328 0.208c-0.662 0.436-1.867 1.46-2.075 1.774-0.402 0.603-0.362 1.164 0.093 1.393l0.214 0.107-0.241 0.228c-0.362 0.341-0.436 0.576-0.382 1.191 0.034 0.409 0.020 0.63-0.073 0.964-0.114 0.436-0.114 0.442 0.033 0.75 0.148 0.301 0.563 0.683 0.938 0.844 0.18 0.080 0.187 0.107 0.228 0.723 0.020 0.356 0.053 1.486 0.080 2.517 0.020 1.031 0.068 1.975 0.107 2.089 0.034 0.12 0.161 0.281 0.276 0.361 0.388 0.268 0.656 0.556 0.829 0.891 0.195 0.382 0.409 1.319 1.058 4.559l0.455 2.276 0.282 0.268c0.535 0.529 1.56 0.77 3.247 0.77 1.693 0 2.704-0.235 3.24-0.764l0.288-0.274 0.414-2.109c0.916-4.612 0.997-4.867 1.714-5.436 0.22-0.181 0.436-0.402 0.475-0.502 0.047-0.114 0.094-0.991 0.127-2.316 0.027-1.178 0.068-2.343 0.094-2.591l0.040-0.448 0.436-0.329c0.548-0.421 0.763-0.803 0.763-1.392-0.006-0.696-0.462-1.46-1.292-2.142l-0.396-0.321 0.195-0.276c0.81-1.117 0.301-2.664-1.205-3.694l-0.455-0.315 0.167-0.174c0.743-0.796 0.864-3.173 0.241-4.827-0.374-0.984-1.232-2.055-2.283-2.845-0.514-0.388-1.934-1.245-2.060-1.245-0.027 0-0.027 0.047-0.006 0.107zM18.036 2.444c0.356 0.348 0.783 0.823 0.951 1.064 0.997 1.393 1.252 3.14 0.649 4.426-0.241 0.522-0.964 1.298-1.634 1.76-1.024 0.71-3.327 1.902-4.933 2.557-2.584 1.052-4.084 1.252-4.258 0.563-0.068-0.261 0.127-0.468 0.951-1.018 0.742-0.508 4.076-2.986 4.136-3.086 0.020-0.027-0.321 0.127-0.749 0.341-1.452 0.737-2.142 0.596-2.108-0.428 0.020-0.743 0.556-1.587 1.298-2.068 0.188-0.12 0.771-0.388 1.307-0.603 1.76-0.709 2.296-1.071 2.892-1.961 0.356-0.529 0.743-1.507 0.77-1.922 0.007-0.147 0.034-0.261 0.053-0.261s0.322 0.288 0.676 0.636zM19.863 10.050c0.489 0.274 0.997 0.743 1.218 1.111 0.389 0.662 0.188 1.325-0.649 2.169-0.91 0.924-2.463 1.808-4.171 2.37-1.573 0.516-3.079 0.756-5.236 0.83l-1.339 0.047 0.871 0.053c1.124 0.074 3.3 0.007 4.143-0.127 2.243-0.356 4.151-1.065 5.516-2.042 0.308-0.221 0.629-0.402 0.716-0.402 0.221 0 1.185 0.924 1.38 1.312 0.107 0.221 0.133 0.382 0.114 0.596-0.1 0.891-1.186 1.366-3.803 1.68-3.2 0.382-7.384 0.007-9.172-0.816-0.844-0.388-0.984-0.61-0.77-1.198 0.067-0.188 0.080-0.409 0.053-0.724-0.034-0.415-0.027-0.468 0.12-0.622 0.335-0.362 0.898-0.569 2.96-1.092 0.723-0.187 1.707-0.482 2.175-0.656 1.138-0.415 3.274-1.493 4.264-2.156 0.931-0.616 1.065-0.643 1.607-0.334zM10.972 18.244c1.406 0.409 2.652 0.529 4.968 0.482 1.74-0.033 2.812-0.14 4.357-0.415 0.316-0.053 0.589-0.1 0.623-0.1 0.074 0 0.053 2.571-0.027 3.247-0.087 0.716-0.282 1.272-0.489 1.406-0.214 0.14-1.285 0.288-2.718 0.368-2.939 0.16-5.958 0-6.895-0.375-0.508-0.207-0.563-0.476-0.569-2.959 0-1.653 0.013-1.881 0.1-1.847 0.053 0.020 0.348 0.107 0.649 0.194zM12.559 23.934c0.482 0.060 1.004 0.12 1.164 0.14l0.289 0.034-0.255 0.281c-0.328 0.355-0.83 1.064-1.011 1.426-0.207 0.415-0.275 0.442-0.582 0.275l-0.261-0.148-0.147-0.91c-0.078-0.506-0.143-0.863-0.216-1.217l0.028 0.165c-0.060-0.173-0.121-0.173 0.99-0.046zM19.696 23.86c0 0.013-0.034 0.187-0.068 0.382-0.040 0.2-0.207 1.292-0.374 2.429-0.341 2.377-0.569 3.494-0.777 3.869-0.288 0.502-0.978 0.796-2.095 0.891-0.436 0.034-1.748-0.053-1.821-0.121-0.053-0.060 1.098-1.486 1.279-1.58 0.167-0.094 0.213-0.080 0.782 0.213 0.663 0.349 0.998 0.403 0.998 0.181s-0.174-0.436-0.603-0.729c-0.395-0.282-0.535-0.443-0.535-0.63 0-0.053 0.194-0.355 0.428-0.669s0.575-0.817 0.749-1.118l0.329-0.542 0.3 0.041c0.609 0.087 0.77 0.080 0.75-0.053-0.013-0.068-0.127-0.261-0.255-0.422-0.127-0.167-0.228-0.335-0.228-0.368 0-0.127 0.622-1.299 0.824-1.547 0.174-0.214 0.315-0.322 0.315-0.228zM15.512 24.396c0.334 0.221 1.593 1.313 1.673 1.446 0.034 0.060-1.258 2.082-1.513 2.37-0.027 0.034-0.167-0.033-0.308-0.14-0.312-0.235-0.692-0.499-1.080-0.752l-0.085-0.052-0.904-0.596 0.542-0.917c0.964-1.613 0.944-1.587 1.151-1.587 0.107 0 0.341 0.1 0.523 0.228zM18.049 24.636c-0.235 0.288-0.428 0.469-0.508 0.469-0.174 0-0.456-0.154-0.931-0.502l-0.396-0.288 0.791-0.047c0.348-0.013 0.665-0.034 0.98-0.065l-0.064 0.005c0.536-0.087 0.536-0.080 0.128 0.428zM12.988 27.857c0.616 0.241 1.66 0.81 1.962 1.065 0.214 0.173 0.214 0.187 0.127 0.401-0.141 0.281-0.279 0.516-0.43 0.741l0.015-0.024c-0.128 0.191-0.277 0.434-0.417 0.682l-0.032 0.061c-0.213 0.415-0.281 0.449-0.723 0.329-0.476-0.141-0.729-0.382-0.863-0.818-0.181-0.609-0.469-2.329-0.436-2.597 0.013-0.1 0.294-0.040 0.796 0.161z">
            </path>
        </symbol>
        <symbol id="weight" viewBox="0 0 32 32">
            <path
                d="M14.178 0.547c-3.974 0.589-7.247 2.796-8.452 5.685-0.384 0.913-0.487 1.474-0.487 2.573 0.007 0.812 0.036 1.114 0.163 1.552 0.258 0.862 0.443 1.301 0.827 1.92l0.356 0.574-0.4 0.489c-3.154 3.924-3.501 9.444-0.871 13.793 0.982 1.631 2.586 3.235 4.151 4.169l0.466 0.273 12.743-0.108 0.302-0.165c1.057-0.596 2.548-1.926 3.383-3.004 1.208-1.569 2.064-3.472 2.413-5.546l0.010-0.074c0.118-0.74 0.118-2.933-0.007-3.63-0.377-2.148-1.182-3.988-2.452-5.62-0.244-0.309-0.436-0.568-0.436-0.589 0-0.014 0.133-0.237 0.288-0.489 0.362-0.575 0.687-1.316 0.864-1.962 0.199-0.719 0.199-2.516 0-3.235-0.709-2.551-2.836-4.679-5.843-5.851-0.843-0.331-2.284-0.683-3.214-0.797-0.864-0.101-2.999-0.080-3.804 0.043zM18.676 1.718c3.945 0.769 6.834 3.184 7.365 6.16 0.118 0.668 0.044 1.804-0.155 2.436-0.2 0.619-0.569 1.345-1.004 1.963-0.178 0.252-0.325 0.54-0.325 0.633s0.155 0.338 0.377 0.582c1.846 2.048 2.821 4.614 2.821 7.388-0.007 3.156-1.219 5.923-3.553 8.093-0.399 0.373-0.968 0.841-1.271 1.042l-0.554 0.373-12.211 0.051-0.473-0.302c-1.714-1.114-3.258-2.954-4.115-4.908-1.078-2.472-1.189-5.34-0.31-7.913 0.466-1.337 1.086-2.429 2.031-3.58 0.385-0.46 0.562-0.733 0.562-0.862 0-0.108-0.192-0.46-0.444-0.827-0.886-1.287-1.248-2.717-1.034-4.068 0.222-1.365 0.842-2.487 1.987-3.601 1.493-1.444 3.576-2.4 6.021-2.76 1.012-0.151 3.25-0.093 4.284 0.1z">
            </path>
            <path
                d="M14.509 2.983c-3.028 0.496-5.4 2.178-6.175 4.385-0.178 0.496-0.207 0.69-0.207 1.401s0.029 0.907 0.207 1.402c0.11 0.316 0.317 0.756 0.458 0.978 0.384 0.618 0.554 0.64 1.316 0.18 1.094-0.674 2.368-1.19 3.727-1.474l0.078-0.014c0.916-0.187 2.674-0.258 3.671-0.143 1.558 0.18 3.25 0.74 4.602 1.538 0.384 0.222 0.776 0.409 0.871 0.409 0.562 0 1.278-1.617 1.278-2.875 0-2.796-2.674-5.189-6.463-5.786-0.805-0.129-2.587-0.129-3.362 0zM18.166 4.133c1.271 0.273 2.437 0.791 3.317 1.474 1.182 0.913 1.817 2.185 1.713 3.413-0.036 0.489-0.221 1.15-0.332 1.222-0.030 0.014-0.444-0.158-0.916-0.388-0.926-0.454-2.004-0.832-3.131-1.081l-0.097-0.018c-0.687-0.143-0.975-0.165-2.511-0.158-1.515 0-1.832 0.022-2.489 0.158-1.179 0.249-2.221 0.616-3.196 1.099l0.078-0.035c-1.1 0.524-1.042 0.532-1.241-0.116-0.258-0.84-0.096-1.955 0.406-2.796 0.267-0.445 0.997-1.186 1.529-1.552 1.012-0.698 1.899-1.013 3.804-1.359 0.391-0.071 2.564 0.029 3.066 0.137zM16.963 13.404c-0.207 0.26-0.207 0.504 0.007 0.712 0.14 0.137 0.281 0.172 0.791 0.209 1.034 0.075 1.983 0.38 2.815 0.865l-0.031-0.017c0.606 0.359 1.529 1.229 1.943 1.854 0.613 0.898 1.034 2.185 1.034 3.134 0 0.331 0.030 0.431 0.185 0.574 0.236 0.237 0.547 0.237 0.776 0 0.163-0.165 0.169-0.208 0.125-0.912-0.207-3.479-3.184-6.382-6.744-6.578l-0.74-0.043-0.162 0.202z">
            </path>
        </symbol>
        <symbol id="cow" viewBox="0 0 31 32">
            <path
                d="M6.002 0.778c-0.254 0.219-0.98 1.732-1.24 2.558-0.31 1.024-0.415 1.792-0.374 2.851 0.056 1.514 0.437 2.662 1.275 3.861 0.219 0.315 0.395 0.585 0.395 0.607 0 0.015-0.134 0.029-0.303 0.029-0.726 0-2.086 0.241-3.128 0.555-1.655 0.497-2.627 1.367-2.627 2.34 0 0.343 0.31 0.928 0.641 1.228 0.641 0.578 2.043 1.126 3.55 1.389 0.521 0.095 2.071 0.256 2.416 0.264 0.063 0 0.085 0.336 0.085 1.44 0 0.951 0.035 1.689 0.106 2.142 0.253 1.623 1.042 3.342 2.084 4.555l0.36 0.417-0.24 0.387c-0.352 0.548-0.486 0.965-0.528 1.586-0.106 1.492 0.823 2.815 2.621 3.744 3.422 1.776 8.741 1.082 10.735-1.404 0.972-1.214 1.085-2.603 0.317-3.861l-0.24-0.388 0.43-0.519c0.803-0.965 1.324-1.93 1.718-3.152 0.331-1.038 0.458-2.040 0.458-3.626 0-0.724 0.021-1.323 0.056-1.323 0.324-0.008 1.881-0.176 2.374-0.264 1.514-0.263 2.889-0.804 3.55-1.389 0.331-0.3 0.641-0.885 0.641-1.228 0-1.083-1.098-1.96-3.142-2.486-0.669-0.176-1.93-0.387-2.543-0.424l-0.289-0.023 0.317-0.438c0.394-0.534 0.887-1.571 1.078-2.252 0.535-1.967 0.204-4.255-0.944-6.441-0.48-0.905-0.811-1.117-1.198-0.759-0.148 0.138-0.212 0.329-0.352 1.016-0.437 2.186-1.247 3.92-2.43 5.199l-0.521 0.571h-11.144l-0.465-0.505c-1.155-1.271-1.994-3.070-2.43-5.264-0.141-0.688-0.204-0.877-0.352-1.016-0.233-0.212-0.458-0.205-0.718 0.022zM6.903 5.114c0.374 0.819 0.839 1.586 1.387 2.295l0.437 0.563-0.457 0.344c-0.43 0.329-0.831 0.797-1.142 1.33l-0.133 0.242-0.338-0.461c-1.155-1.594-1.444-3.546-0.831-5.571 0.296-0.98 0.289-0.973 0.556-0.125 0.127 0.409 0.367 1.031 0.521 1.382zM25.238 3.571c0.255 0.709 0.403 1.526 0.403 2.378 0 0.030-0 0.060-0.001 0.090l0-0.005c0 1.331-0.352 2.456-1.091 3.465l-0.331 0.453-0.247-0.417c-0.319-0.54-0.732-0.991-1.22-1.344l-0.013-0.009c-0.19-0.124-0.337-0.248-0.337-0.263 0-0.022 0.133-0.19 0.303-0.373 0.782-0.87 1.62-2.435 2.036-3.779 0.126-0.418 0.253-0.761 0.274-0.761s0.127 0.256 0.225 0.562zM21.64 8.916c0.782 0.329 1.528 1.271 1.648 2.069 0.063 0.439 0.211 0.717 0.401 0.761 0.085 0.015 0.669 0.066 1.296 0.109 2.225 0.147 3.979 0.622 4.727 1.272 0.345 0.307 0.31 0.563-0.105 0.878-0.831 0.629-2.627 1.104-4.459 1.185-1.212 0.051-1.465 0.086-1.628 0.255-0.119 0.125-0.133 0.256-0.133 1.579 0 1.792-0.092 2.823-0.317 3.656-0.317 1.133-0.944 2.34-1.676 3.196l-0.303 0.351-0.627-0.373c-0.669-0.415-1.445-0.74-2.272-0.933l-0.053-0.010c-2.67-0.636-5.622-0.248-7.607 1.002l-0.458 0.292-0.289-0.343c-0.394-0.461-1.014-1.448-1.261-2.003-0.542-1.258-0.704-2.282-0.704-4.534 0-2.186 0.112-2.026-1.507-2.113-2.071-0.11-3.65-0.483-4.643-1.111-0.733-0.468-0.612-0.885 0.409-1.375 0.979-0.476 2.324-0.76 4.191-0.877 1.451-0.095 1.486-0.117 1.62-0.819 0.197-1.060 0.979-1.937 1.966-2.216 0.246-0.073 1.627-0.087 5.853-0.080l5.53 0.014 0.401 0.169zM17.68 24.051c1.726 0.424 3.015 1.213 3.572 2.193 0.134 0.227 0.19 0.461 0.218 0.819 0.029 0.446 0.008 0.555-0.162 0.921-0.782 1.661-3.656 2.756-6.579 2.508-3.515-0.292-5.826-2.252-4.917-4.175 0.493-1.038 2.162-2.032 3.923-2.326 0.289-0.043 0.578-0.095 0.634-0.11s0.691-0.015 1.41 0c0.978 0.023 1.45 0.066 1.901 0.169z">
            </path>
            <path
                d="M10.693 12.579c-0.437 0.147-0.733 0.337-1.127 0.732-0.346 0.329-0.374 0.716-0.085 0.95 0.268 0.219 0.521 0.19 0.845-0.095 0.409-0.358 0.726-0.504 1.121-0.504 0.394-0.008 0.697 0.131 1.119 0.504 0.324 0.285 0.578 0.314 0.846 0.095 0.141-0.117 0.183-0.212 0.183-0.432 0-0.227-0.049-0.329-0.297-0.578-0.697-0.701-1.732-0.972-2.606-0.673zM18.906 12.572c-0.45 0.168-1.028 0.548-1.26 0.833-0.226 0.278-0.233 0.592 0 0.827 0.232 0.248 0.514 0.233 0.852-0.044 0.831-0.688 1.451-0.709 2.219-0.073 0.197 0.169 0.422 0.3 0.493 0.3 0.345 0 0.627-0.307 0.627-0.673 0-0.233-0.585-0.775-1.113-1.031-0.585-0.285-1.282-0.336-1.817-0.138zM11.715 26.106c-0.204 0.197-0.275 0.483-0.169 0.709 0.078 0.183 0.197 0.256 0.683 0.387 0.219 0.058 0.31 0.131 0.387 0.314 0.099 0.242 0.106 0.242 0.649 0.264l0.542 0.022v-0.205c-0.007-0.292-0.169-0.716-0.381-1.008-0.246-0.337-0.676-0.556-1.162-0.6-0.331-0.029-0.415-0.015-0.549 0.118zM18.442 26.054c-0.352 0.095-0.859 0.571-1 0.943-0.070 0.196-0.118 0.423-0.134 0.658l-0 0.008c-0.014 0.314 0.014 0.387 0.183 0.541 0.415 0.365 0.965 0.080 0.965-0.505 0-0.285 0.211-0.483 0.585-0.555 0.394-0.073 0.535-0.233 0.542-0.607 0-0.489-0.437-0.68-1.142-0.483z">
            </path>
        </symbol>

        <!-- Socials icons -->
        <symbol id="facebook" viewBox="0 0 32 32">
            <path fill="#f8d24e" style="fill: var(--color1, #f8d24e)"
                d="M16 32c8.837 0 16-7.163 16-16s-7.163-16-16-16-16 7.163-16 16 7.163 16 16 16z"></path>
            <path fill="#84a178" style="fill: var(--color2, #84a178)"
                d="M20.446 15.981h-2.611v9.619h-3.955v-9.619h-1.88v-3.379h1.88v-2.187c0-1.564 0.739-4.014 3.991-4.014l2.929 0.012v3.281h-2.125c-0.348 0-0.839 0.176-0.839 0.922v1.989h2.955l-0.345 3.377z">
            </path>
        </symbol>
        <symbol id="telegram" viewBox="0 0 32 32">
            <path fill="#f8d24e" style="fill: var(--color1, #f8d24e)"
                d="M32 16c0 8.837-7.163 16-16 16s-16-7.163-16-16c0-8.837 7.163-16 16-16s16 7.163 16 16z"></path>
            <path fill="#84a178" style="fill: var(--color2, #84a178)"
                d="M12.869 18.376l-0.318 4.169c0.455 0 0.651-0.183 0.888-0.401l2.131-1.901 4.414 3.018c0.809 0.421 1.38 0.199 1.598-0.696l2.899-12.673c0.257-1.117-0.433-1.554-1.222-1.28l-17.032 6.086c-1.162 0.422-1.144 1.026-0.198 1.301l4.355 1.264 10.115-5.907c0.475-0.295 0.908-0.132 0.552 0.163l-8.182 6.856z">
            </path>
        </symbol>
        <symbol id="github" viewBox="0 0 32 32">
            <path fill="#f8d24e" style="fill: var(--color1, #f8d24e)"
                d="M32 16c0 8.837-7.163 16-16 16s-16-7.163-16-16c0-8.837 7.163-16 16-16s16 7.163 16 16z"></path>
            <path fill="#84a178" style="fill: var(--color2, #84a178)"
                d="M16 6.588c-5.17 0-9.412 4.242-9.412 9.412 0 4.411 3.096 8.419 7.206 9.412v-3.113c-0.408 0.088-0.781 0.091-1.196-0.031-0.556-0.164-1.008-0.535-1.344-1.099-0.214-0.36-0.593-0.753-0.988-0.724l-0.097-1.098c0.856-0.073 1.594 0.521 2.033 1.258 0.196 0.328 0.421 0.52 0.709 0.605 0.278 0.083 0.577 0.043 0.925-0.080 0.088-0.697 0.408-0.958 0.649-1.327-2.452-0.365-3.429-1.666-3.816-2.692-0.514-1.364-0.238-3.066 0.67-4.143 0.018-0.021 0.050-0.075 0.038-0.113-0.417-1.259 0.090-2.3 0.109-2.41 0.481 0.141 0.559-0.143 2.089 0.786l0.264 0.159c0.111 0.066 0.075 0.028 0.186 0.019 0.59-0.166 1.269-0.266 1.97-0.276l0.006-0c0.668 0.008 1.336 0.104 2.002 0.284l0.086 0.009c-0.008-0.002 0.024-0.006 0.075-0.037 1.911-1.158 1.842-0.779 2.355-0.946 0.019 0.111 0.519 1.169 0.106 2.411-0.056 0.171 1.656 1.739 0.708 4.256-0.388 1.026-1.365 2.328-3.816 2.693 0.314 0.48 0.692 0.734 0.69 1.722v3.886c4.109-0.993 7.206-5 7.206-9.412 0-5.17-4.242-9.412-9.412-9.412z">
            </path>
        </symbol>

        <!-- Background points -->
        <symbol id="points-desktop" viewBox="0 0 100 32">
            <path fill="#f8d24e" style="fill: var(--color1, #f8d24e)"
                d="M45.81 25.797c0 0.287-0.219 0.52-0.488 0.52s-0.488-0.233-0.488-0.52c0-0.287 0.219-0.52 0.488-0.52s0.488 0.233 0.488 0.52z">
            </path>
            <path fill="#f8d24e" style="fill: var(--color1, #f8d24e)"
                d="M46.949 25.104c0 0.287-0.219 0.52-0.488 0.52s-0.488-0.233-0.488-0.52c0-0.287 0.219-0.52 0.488-0.52s0.488 0.233 0.488 0.52z">
            </path>
            <path fill="#f8d24e" style="fill: var(--color1, #f8d24e)"
                d="M44.915 27.705c0 0.287-0.219 0.52-0.488 0.52s-0.488-0.233-0.488-0.52c0-0.287 0.219-0.52 0.488-0.52s0.488 0.233 0.488 0.52z">
            </path>
            <path fill="#f8d24e" style="fill: var(--color1, #f8d24e)"
                d="M45.972 27.011c0 0.287-0.219 0.52-0.488 0.52s-0.488-0.233-0.488-0.52c0-0.287 0.219-0.52 0.488-0.52s0.488 0.233 0.488 0.52z">
            </path>
            <path fill="#f8d24e" style="fill: var(--color1, #f8d24e)"
                d="M47.193 26.231c0 0.287-0.219 0.52-0.488 0.52s-0.488-0.233-0.488-0.52c0-0.287 0.219-0.52 0.488-0.52s0.488 0.233 0.488 0.52z">
            </path>
            <path fill="#f8d24e" style="fill: var(--color1, #f8d24e)"
                d="M48.332 25.537c0 0.287-0.219 0.52-0.488 0.52s-0.488-0.233-0.488-0.52c0-0.287 0.219-0.52 0.488-0.52s0.488 0.233 0.488 0.52z">
            </path>
            <path fill="#f8d24e" style="fill: var(--color1, #f8d24e)"
                d="M46.705 27.792c0 0.287-0.219 0.52-0.488 0.52s-0.488-0.233-0.488-0.52c0-0.287 0.219-0.52 0.488-0.52s0.488 0.233 0.488 0.52z">
            </path>
            <path fill="#f8d24e" style="fill: var(--color1, #f8d24e)"
                d="M47.762 27.098c0 0.287-0.219 0.52-0.488 0.52s-0.488-0.233-0.488-0.52c0-0.287 0.219-0.52 0.488-0.52s0.488 0.233 0.488 0.52z">
            </path>
            <path fill="#f8d24e" style="fill: var(--color1, #f8d24e)"
                d="M48.983 26.318c0 0.287-0.219 0.52-0.488 0.52s-0.488-0.233-0.488-0.52c0-0.287 0.219-0.52 0.488-0.52s0.488 0.233 0.488 0.52z">
            </path>
            <path fill="#f8d24e" style="fill: var(--color1, #f8d24e)"
                d="M50.122 25.624c0 0.287-0.219 0.52-0.488 0.52s-0.488-0.233-0.488-0.52c0-0.287 0.219-0.52 0.488-0.52s0.488 0.233 0.488 0.52z">
            </path>
            <path fill="#f8d24e" style="fill: var(--color1, #f8d24e)"
                d="M48.82 27.792c0 0.287-0.219 0.52-0.488 0.52s-0.488-0.233-0.488-0.52c0-0.287 0.219-0.52 0.488-0.52s0.488 0.233 0.488 0.52z">
            </path>
            <path fill="#f8d24e" style="fill: var(--color1, #f8d24e)"
                d="M49.878 27.098c0 0.287-0.219 0.52-0.488 0.52s-0.488-0.233-0.488-0.52c0-0.287 0.219-0.52 0.488-0.52s0.488 0.233 0.488 0.52z">
            </path>
            <path fill="#f8d24e" style="fill: var(--color1, #f8d24e)"
                d="M51.098 26.318c0 0.287-0.219 0.52-0.488 0.52s-0.488-0.233-0.488-0.52c0-0.287 0.219-0.52 0.488-0.52s0.488 0.233 0.488 0.52z">
            </path>
            <path fill="#f8d24e" style="fill: var(--color1, #f8d24e)"
                d="M52.238 25.624c0 0.287-0.219 0.52-0.488 0.52s-0.488-0.233-0.488-0.52c0-0.287 0.219-0.52 0.488-0.52s0.488 0.233 0.488 0.52z">
            </path>
            <path fill="#f8d24e" style="fill: var(--color1, #f8d24e)"
                d="M50.61 27.705c0 0.287-0.219 0.52-0.488 0.52s-0.488-0.233-0.488-0.52c0-0.287 0.219-0.52 0.488-0.52s0.488 0.233 0.488 0.52z">
            </path>
            <path fill="#f8d24e" style="fill: var(--color1, #f8d24e)"
                d="M51.668 27.011c0 0.287-0.219 0.52-0.488 0.52s-0.488-0.233-0.488-0.52c0-0.287 0.219-0.52 0.488-0.52s0.488 0.233 0.488 0.52z">
            </path>
            <path fill="#f8d24e" style="fill: var(--color1, #f8d24e)"
                d="M52.889 26.231c0 0.287-0.219 0.52-0.488 0.52s-0.488-0.233-0.488-0.52c0-0.287 0.219-0.52 0.488-0.52s0.488 0.233 0.488 0.52z">
            </path>
            <path fill="#f8d24e" style="fill: var(--color1, #f8d24e)"
                d="M54.028 25.537c0 0.287-0.219 0.52-0.488 0.52s-0.488-0.233-0.488-0.52c0-0.287 0.219-0.52 0.488-0.52s0.488 0.233 0.488 0.52z">
            </path>
            <path fill="#f8d24e" style="fill: var(--color1, #f8d24e)"
                d="M52.644 27.618c0 0.287-0.219 0.52-0.488 0.52s-0.488-0.233-0.488-0.52c0-0.287 0.219-0.52 0.488-0.52s0.488 0.233 0.488 0.52z">
            </path>
            <path fill="#f8d24e" style="fill: var(--color1, #f8d24e)"
                d="M53.702 26.925c0 0.287-0.219 0.52-0.488 0.52s-0.488-0.233-0.488-0.52c0-0.287 0.219-0.52 0.488-0.52s0.488 0.233 0.488 0.52z">
            </path>
            <path fill="#f8d24e" style="fill: var(--color1, #f8d24e)"
                d="M54.923 26.144c0 0.287-0.219 0.52-0.488 0.52s-0.488-0.233-0.488-0.52c0-0.287 0.219-0.52 0.488-0.52s0.488 0.233 0.488 0.52z">
            </path>
            <path fill="#f8d24e" style="fill: var(--color1, #f8d24e)"
                d="M56.062 25.45c0 0.287-0.219 0.52-0.488 0.52s-0.488-0.233-0.488-0.52c0-0.287 0.219-0.52 0.488-0.52s0.488 0.233 0.488 0.52z">
            </path>
            <path fill="#f8d24e" style="fill: var(--color1, #f8d24e)"
                d="M54.516 25.364c0 0.287-0.219 0.52-0.488 0.52s-0.488-0.233-0.488-0.52c0-0.287 0.219-0.52 0.488-0.52s0.488 0.233 0.488 0.52z">
            </path>
            <path fill="#f8d24e" style="fill: var(--color1, #f8d24e)"
                d="M55.574 24.67c0 0.287-0.219 0.52-0.488 0.52s-0.488-0.233-0.488-0.52c0-0.287 0.219-0.52 0.488-0.52s0.488 0.233 0.488 0.52z">
            </path>
            <path fill="#f8d24e" style="fill: var(--color1, #f8d24e)"
                d="M56.794 23.889c0 0.287-0.219 0.52-0.488 0.52s-0.488-0.233-0.488-0.52c0-0.287 0.219-0.52 0.488-0.52s0.488 0.233 0.488 0.52z">
            </path>
            <path fill="#f8d24e" style="fill: var(--color1, #f8d24e)"
                d="M57.933 23.196c0 0.287-0.219 0.52-0.488 0.52s-0.488-0.233-0.488-0.52c0-0.287 0.219-0.52 0.488-0.52s0.488 0.233 0.488 0.52z">
            </path>
        </symbol>
        <symbol id="points-tablet" viewBox="0 0 356 32">
            <path fill="#f8d24e" style="fill: var(--color1, #f8d24e)"
                d="M306.022 29.57c0 1.021-0.832 1.849-1.857 1.849s-1.857-0.828-1.857-1.849c0-1.021 0.832-1.849 1.857-1.849s1.857 0.828 1.857 1.849z">
            </path>
            <path fill="#f8d24e" style="fill: var(--color1, #f8d24e)"
                d="M309.737 27.258c0 1.021-0.832 1.849-1.857 1.849s-1.857-0.828-1.857-1.849c0-1.021 0.832-1.849 1.857-1.849s1.857 0.828 1.857 1.849z">
            </path>
            <path fill="#f8d24e" style="fill: var(--color1, #f8d24e)"
                d="M314.38 24.485c0 1.021-0.832 1.849-1.857 1.849s-1.857-0.828-1.857-1.849c0-1.021 0.832-1.849 1.857-1.849s1.857 0.828 1.857 1.849z">
            </path>
            <path fill="#f8d24e" style="fill: var(--color1, #f8d24e)"
                d="M318.095 22.173c0 1.021-0.832 1.849-1.857 1.849s-1.857-0.828-1.857-1.849c0-1.021 0.832-1.849 1.857-1.849s1.857 0.828 1.857 1.849z">
            </path>
            <path fill="#f8d24e" style="fill: var(--color1, #f8d24e)"
                d="M315.773 28.646c0 1.021-0.832 1.849-1.857 1.849s-1.857-0.828-1.857-1.849c0-1.021 0.832-1.849 1.857-1.849s1.857 0.828 1.857 1.849z">
            </path>
            <path fill="#f8d24e" style="fill: var(--color1, #f8d24e)"
                d="M319.488 26.334c0 1.021-0.832 1.849-1.857 1.849s-1.857-0.828-1.857-1.849c0-1.021 0.832-1.849 1.857-1.849s1.857 0.828 1.857 1.849z">
            </path>
            <path fill="#f8d24e" style="fill: var(--color1, #f8d24e)"
                d="M324.132 23.56c0 1.021-0.832 1.849-1.857 1.849s-1.857-0.828-1.857-1.849c0-1.021 0.832-1.849 1.857-1.849s1.857 0.828 1.857 1.849z">
            </path>
            <path fill="#f8d24e" style="fill: var(--color1, #f8d24e)"
                d="M327.847 21.248c0 1.021-0.832 1.849-1.857 1.849s-1.857-0.828-1.857-1.849c0-1.021 0.832-1.849 1.857-1.849s1.857 0.828 1.857 1.849z">
            </path>
            <path fill="#f8d24e" style="fill: var(--color1, #f8d24e)"
                d="M324.132 27.721c0 1.021-0.832 1.849-1.857 1.849s-1.857-0.828-1.857-1.849c0-1.021 0.832-1.849 1.857-1.849s1.857 0.828 1.857 1.849z">
            </path>
            <path fill="#f8d24e" style="fill: var(--color1, #f8d24e)"
                d="M327.847 25.409c0 1.021-0.832 1.849-1.857 1.849s-1.857-0.828-1.857-1.849c0-1.021 0.832-1.849 1.857-1.849s1.857 0.828 1.857 1.849z">
            </path>
            <path fill="#f8d24e" style="fill: var(--color1, #f8d24e)"
                d="M332.491 22.635c0 1.021-0.832 1.849-1.857 1.849s-1.857-0.828-1.857-1.849c0-1.021 0.832-1.849 1.857-1.849s1.857 0.828 1.857 1.849z">
            </path>
            <path fill="#f8d24e" style="fill: var(--color1, #f8d24e)"
                d="M336.206 20.323c0 1.021-0.832 1.849-1.857 1.849s-1.857-0.828-1.857-1.849c0-1.021 0.832-1.849 1.857-1.849s1.857 0.828 1.857 1.849z">
            </path>
            <path fill="#f8d24e" style="fill: var(--color1, #f8d24e)"
                d="M332.491 26.334c0 1.021-0.832 1.849-1.857 1.849s-1.857-0.828-1.857-1.849c0-1.021 0.832-1.849 1.857-1.849s1.857 0.828 1.857 1.849z">
            </path>
            <path fill="#f8d24e" style="fill: var(--color1, #f8d24e)"
                d="M336.206 24.022c0 1.021-0.832 1.849-1.857 1.849s-1.857-0.828-1.857-1.849c0-1.021 0.832-1.849 1.857-1.849s1.857 0.828 1.857 1.849z">
            </path>
            <path fill="#f8d24e" style="fill: var(--color1, #f8d24e)"
                d="M340.85 21.248c0 1.021-0.832 1.849-1.857 1.849s-1.857-0.828-1.857-1.849c0-1.021 0.832-1.849 1.857-1.849s1.857 0.828 1.857 1.849z">
            </path>
            <path fill="#f8d24e" style="fill: var(--color1, #f8d24e)"
                d="M344.564 18.936c0 1.021-0.832 1.849-1.857 1.849s-1.857-0.828-1.857-1.849c0-1.021 0.832-1.849 1.857-1.849s1.857 0.828 1.857 1.849z">
            </path>
            <path fill="#f8d24e" style="fill: var(--color1, #f8d24e)"
                d="M334.813 29.57c0 1.021-0.832 1.849-1.857 1.849s-1.857-0.828-1.857-1.849c0-1.021 0.832-1.849 1.857-1.849s1.857 0.828 1.857 1.849z">
            </path>
            <path fill="#f8d24e" style="fill: var(--color1, #f8d24e)"
                d="M338.528 27.258c0 1.021-0.832 1.849-1.857 1.849s-1.857-0.828-1.857-1.849c0-1.021 0.832-1.849 1.857-1.849s1.857 0.828 1.857 1.849z">
            </path>
            <path fill="#f8d24e" style="fill: var(--color1, #f8d24e)"
                d="M343.636 30.033c0 1.021-0.832 1.849-1.857 1.849s-1.857-0.828-1.857-1.849c0-1.021 0.832-1.849 1.857-1.849s1.857 0.828 1.857 1.849z">
            </path>
            <path fill="#f8d24e" style="fill: var(--color1, #f8d24e)"
                d="M343.171 24.485c0 1.021-0.832 1.849-1.857 1.849s-1.857-0.828-1.857-1.849c0-1.021 0.832-1.849 1.857-1.849s1.857 0.828 1.857 1.849z">
            </path>
            <path fill="#f8d24e" style="fill: var(--color1, #f8d24e)"
                d="M348.279 27.258c0 1.021-0.832 1.849-1.857 1.849s-1.857-0.828-1.857-1.849c0-1.021 0.832-1.849 1.857-1.849s1.857 0.828 1.857 1.849z">
            </path>
            <path fill="#f8d24e" style="fill: var(--color1, #f8d24e)"
                d="M352.459 30.033c0 1.021-0.832 1.849-1.857 1.849s-1.857-0.828-1.857-1.849c0-1.021 0.832-1.849 1.857-1.849s1.857 0.828 1.857 1.849z">
            </path>
            <path fill="#f8d24e" style="fill: var(--color1, #f8d24e)"
                d="M346.887 22.173c0 1.021-0.832 1.849-1.857 1.849s-1.857-0.828-1.857-1.849c0-1.021 0.832-1.849 1.857-1.849s1.857 0.828 1.857 1.849z">
            </path>
            <path fill="#f8d24e" style="fill: var(--color1, #f8d24e)"
                d="M352.459 24.947c0 1.021-0.832 1.849-1.857 1.849s-1.857-0.828-1.857-1.849c0-1.021 0.832-1.849 1.857-1.849s1.857 0.828 1.857 1.849z">
            </path>
            <path fill="#f8d24e" style="fill: var(--color1, #f8d24e)"
                d="M356.174 27.721c0 1.021-0.832 1.849-1.857 1.849s-1.857-0.828-1.857-1.849c0-1.021 0.832-1.849 1.857-1.849s1.857 0.828 1.857 1.849z">
            </path>
            <path fill="#f8d24e" style="fill: var(--color1, #f8d24e)"
                d="M288.376 10.151c0 1.021-0.832 1.849-1.857 1.849s-1.857-0.828-1.857-1.849c0-1.021 0.832-1.849 1.857-1.849s1.857 0.828 1.857 1.849z">
            </path>
            <path fill="#f8d24e" style="fill: var(--color1, #f8d24e)"
                d="M292.090 7.839c0 1.021-0.832 1.849-1.857 1.849s-1.857-0.828-1.857-1.849c0-1.021 0.832-1.849 1.857-1.849s1.857 0.828 1.857 1.849z">
            </path>
            <path fill="#f8d24e" style="fill: var(--color1, #f8d24e)"
                d="M296.734 5.065c0 1.021-0.832 1.849-1.857 1.849s-1.857-0.828-1.857-1.849c0-1.021 0.832-1.849 1.857-1.849s1.857 0.828 1.857 1.849z">
            </path>
            <path fill="#f8d24e" style="fill: var(--color1, #f8d24e)"
                d="M300.449 2.753c0 1.021-0.832 1.85-1.857 1.85s-1.857-0.828-1.857-1.849c0-1.021 0.832-1.849 1.857-1.849s1.857 0.828 1.857 1.849z">
            </path>
            <path fill="#f8d24e" style="fill: var(--color1, #f8d24e)"
                d="M280.946 9.689c0 1.021-0.832 1.85-1.857 1.85s-1.857-0.828-1.857-1.849c0-1.021 0.832-1.849 1.857-1.849s1.857 0.828 1.857 1.849z">
            </path>
            <path fill="#f8d24e" style="fill: var(--color1, #f8d24e)"
                d="M284.66 7.377c0 1.021-0.832 1.849-1.857 1.849s-1.857-0.828-1.857-1.849c0-1.021 0.832-1.849 1.857-1.849s1.857 0.828 1.857 1.849z">
            </path>
            <path fill="#f8d24e" style="fill: var(--color1, #f8d24e)"
                d="M289.304 4.602c0 1.021-0.832 1.849-1.857 1.849s-1.857-0.828-1.857-1.849c0-1.021 0.832-1.849 1.857-1.849s1.857 0.828 1.857 1.849z">
            </path>
            <path fill="#f8d24e" style="fill: var(--color1, #f8d24e)"
                d="M293.019 2.291c0 1.021-0.832 1.849-1.857 1.849s-1.857-0.828-1.857-1.849c0-1.021 0.832-1.849 1.857-1.849s1.857 0.828 1.857 1.849z">
            </path>
            <path fill="#f8d24e" style="fill: var(--color1, #f8d24e)"
                d="M297.198 29.57c0 1.021-0.832 1.849-1.857 1.849s-1.857-0.828-1.857-1.849c0-1.021 0.832-1.849 1.857-1.849s1.857 0.828 1.857 1.849z">
            </path>
            <path fill="#f8d24e" style="fill: var(--color1, #f8d24e)"
                d="M300.914 27.258c0 1.021-0.832 1.849-1.857 1.849s-1.857-0.828-1.857-1.849c0-1.021 0.832-1.849 1.857-1.849s1.857 0.828 1.857 1.849z">
            </path>
            <path fill="#f8d24e" style="fill: var(--color1, #f8d24e)"
                d="M305.557 24.485c0 1.021-0.832 1.849-1.857 1.849s-1.857-0.828-1.857-1.849c0-1.021 0.832-1.849 1.857-1.849s1.857 0.828 1.857 1.849z">
            </path>
            <path fill="#f8d24e" style="fill: var(--color1, #f8d24e)"
                d="M309.272 22.173c0 1.021-0.832 1.849-1.857 1.849s-1.857-0.828-1.857-1.849c0-1.021 0.832-1.849 1.857-1.849s1.857 0.828 1.857 1.849z">
            </path>
            <path fill="#f8d24e" style="fill: var(--color1, #f8d24e)"
                d="M292.555 28.183c0 1.021-0.832 1.849-1.857 1.849s-1.857-0.828-1.857-1.849c0-1.021 0.832-1.849 1.857-1.849s1.857 0.828 1.857 1.849z">
            </path>
            <path fill="#f8d24e" style="fill: var(--color1, #f8d24e)"
                d="M296.269 25.871c0 1.021-0.832 1.849-1.857 1.849s-1.857-0.828-1.857-1.849c0-1.021 0.832-1.849 1.857-1.849s1.857 0.828 1.857 1.849z">
            </path>
            <path fill="#f8d24e" style="fill: var(--color1, #f8d24e)"
                d="M300.914 23.098c0 1.021-0.832 1.849-1.857 1.849s-1.857-0.828-1.857-1.849c0-1.021 0.832-1.849 1.857-1.849s1.857 0.828 1.857 1.849z">
            </path>
            <path fill="#f8d24e" style="fill: var(--color1, #f8d24e)"
                d="M304.628 20.786c0 1.021-0.832 1.849-1.857 1.849s-1.857-0.828-1.857-1.849c0-1.021 0.832-1.849 1.857-1.849s1.857 0.828 1.857 1.849z">
            </path>
            <path fill="#f8d24e" style="fill: var(--color1, #f8d24e)"
                d="M294.413 21.71c0 1.021-0.832 1.849-1.857 1.849s-1.857-0.828-1.857-1.849c0-1.021 0.832-1.849 1.857-1.849s1.857 0.828 1.857 1.849z">
            </path>
            <path fill="#f8d24e" style="fill: var(--color1, #f8d24e)"
                d="M298.127 19.398c0 1.021-0.832 1.849-1.857 1.849s-1.857-0.828-1.857-1.849c0-1.021 0.832-1.849 1.857-1.849s1.857 0.828 1.857 1.849z">
            </path>
            <path fill="#f8d24e" style="fill: var(--color1, #f8d24e)"
                d="M302.771 16.624c0 1.021-0.832 1.849-1.857 1.849s-1.857-0.828-1.857-1.849c0-1.021 0.832-1.849 1.857-1.849s1.857 0.828 1.857 1.849z">
            </path>
            <path fill="#f8d24e" style="fill: var(--color1, #f8d24e)"
                d="M306.486 14.312c0 1.021-0.832 1.849-1.857 1.849s-1.857-0.828-1.857-1.849c0-1.021 0.832-1.849 1.857-1.849s1.857 0.828 1.857 1.849z">
            </path>
            <path fill="#f8d24e" style="fill: var(--color1, #f8d24e)"
                d="M294.413 11.076c0 1.021-0.832 1.849-1.857 1.849s-1.857-0.828-1.857-1.849c0-1.021 0.832-1.849 1.857-1.849s1.857 0.828 1.857 1.849z">
            </path>
            <path fill="#f8d24e" style="fill: var(--color1, #f8d24e)"
                d="M298.127 8.764c0 1.021-0.832 1.849-1.857 1.849s-1.857-0.828-1.857-1.849c0-1.021 0.832-1.849 1.857-1.849s1.857 0.828 1.857 1.849z">
            </path>
            <path fill="#f8d24e" style="fill: var(--color1, #f8d24e)"
                d="M302.771 5.99c0 1.021-0.832 1.849-1.857 1.849s-1.857-0.828-1.857-1.849c0-1.021 0.832-1.849 1.857-1.849s1.857 0.828 1.857 1.849z">
            </path>
            <path fill="#f8d24e" style="fill: var(--color1, #f8d24e)"
                d="M306.486 3.678c0 1.021-0.832 1.849-1.857 1.849s-1.857-0.828-1.857-1.849c0-1.021 0.832-1.849 1.857-1.849s1.857 0.828 1.857 1.849z">
            </path>
            <path fill="#f8d24e" style="fill: var(--color1, #f8d24e)"
                d="M293.484 17.087c0 1.021-0.832 1.849-1.857 1.849s-1.857-0.828-1.857-1.849c0-1.021 0.832-1.849 1.857-1.849s1.857 0.828 1.857 1.849z">
            </path>
            <path fill="#f8d24e" style="fill: var(--color1, #f8d24e)"
                d="M297.198 14.775c0 1.021-0.832 1.85-1.857 1.85s-1.857-0.828-1.857-1.849c0-1.021 0.832-1.849 1.857-1.849s1.857 0.828 1.857 1.849z">
            </path>
            <path fill="#f8d24e" style="fill: var(--color1, #f8d24e)"
                d="M301.842 12c0 1.021-0.832 1.849-1.857 1.849s-1.857-0.828-1.857-1.849c0-1.021 0.832-1.849 1.857-1.849s1.857 0.828 1.857 1.849z">
            </path>
            <path fill="#f8d24e" style="fill: var(--color1, #f8d24e)"
                d="M305.557 9.689c0 1.021-0.832 1.85-1.857 1.85s-1.857-0.828-1.857-1.849c0-1.021 0.832-1.849 1.857-1.849s1.857 0.828 1.857 1.849z">
            </path>
            <path fill="#f8d24e" style="fill: var(--color1, #f8d24e)"
                d="M274.909 8.301c0 1.021-0.728 1.85-1.625 1.85s-1.625-0.828-1.625-1.849c0-1.021 0.728-1.849 1.625-1.849s1.625 0.828 1.625 1.849z">
            </path>
            <path fill="#f8d24e" style="fill: var(--color1, #f8d24e)"
                d="M278.624 5.99c0 1.021-0.728 1.849-1.625 1.849s-1.625-0.828-1.625-1.849c0-1.021 0.728-1.849 1.625-1.849s1.625 0.828 1.625 1.849z">
            </path>
            <path fill="#f8d24e" style="fill: var(--color1, #f8d24e)"
                d="M283.268 3.215c0 1.021-0.728 1.85-1.625 1.85s-1.625-0.828-1.625-1.849c0-1.021 0.728-1.849 1.625-1.849s1.625 0.828 1.625 1.849z">
            </path>
            <path fill="#f8d24e" style="fill: var(--color1, #f8d24e)"
                d="M281.178 10.151c0.898 0 1.625-0.828 1.625-1.849s-0.728-1.849-1.625-1.849c-0.897 0-1.625 0.828-1.625 1.849s0.728 1.849 1.625 1.849z">
            </path>
            <path fill="#f8d24e" style="fill: var(--color1, #f8d24e)"
                d="M3.715 27.362c0 1.025-0.832 1.855-1.857 1.855s-1.857-0.831-1.857-1.855c0-1.025 0.832-1.855 1.857-1.855s1.857 0.831 1.857 1.855z">
            </path>
            <path fill="#f8d24e" style="fill: var(--color1, #f8d24e)"
                d="M7.43 25.043c0 1.025-0.832 1.855-1.857 1.855s-1.857-0.831-1.857-1.855c0-1.025 0.832-1.855 1.857-1.855s1.857 0.831 1.857 1.855z">
            </path>
            <path fill="#f8d24e" style="fill: var(--color1, #f8d24e)"
                d="M12.074 22.261c0 1.025-0.832 1.855-1.857 1.855s-1.857-0.831-1.857-1.855c0-1.025 0.832-1.855 1.857-1.855s1.857 0.831 1.857 1.855z">
            </path>
            <path fill="#f8d24e" style="fill: var(--color1, #f8d24e)"
                d="M15.789 19.942c0 1.025-0.832 1.855-1.857 1.855s-1.857-0.831-1.857-1.855c0-1.025 0.832-1.855 1.857-1.855s1.857 0.831 1.857 1.855z">
            </path>
            <path fill="#f8d24e" style="fill: var(--color1, #f8d24e)"
                d="M26.005 28.29c0 1.025-0.832 1.855-1.857 1.855s-1.857-0.831-1.857-1.855c0-1.025 0.832-1.855 1.857-1.855s1.857 0.831 1.857 1.855z">
            </path>
            <path fill="#f8d24e" style="fill: var(--color1, #f8d24e)"
                d="M29.72 25.971c0 1.025-0.832 1.855-1.857 1.855s-1.857-0.831-1.857-1.855c0-1.025 0.832-1.855 1.857-1.855s1.857 0.831 1.857 1.855z">
            </path>
            <path fill="#f8d24e" style="fill: var(--color1, #f8d24e)"
                d="M34.363 23.188c0 1.025-0.832 1.855-1.857 1.855s-1.857-0.831-1.857-1.855c0-1.025 0.832-1.855 1.857-1.855s1.857 0.831 1.857 1.855z">
            </path>
            <path fill="#f8d24e" style="fill: var(--color1, #f8d24e)"
                d="M38.079 20.87c0 1.025-0.832 1.855-1.857 1.855s-1.857-0.831-1.857-1.855c0-1.025 0.832-1.855 1.857-1.855s1.857 0.831 1.857 1.855z">
            </path>
            <path fill="#f8d24e" style="fill: var(--color1, #f8d24e)"
                d="M34.364 26.899c0 1.025-0.728 1.855-1.626 1.855s-1.625-0.831-1.625-1.855c0-1.025 0.728-1.855 1.625-1.855s1.626 0.831 1.626 1.855z">
            </path>
            <path fill="#f8d24e" style="fill: var(--color1, #f8d24e)"
                d="M38.079 24.58c0 1.025-0.728 1.855-1.626 1.855s-1.626-0.831-1.626-1.855c0-1.025 0.728-1.855 1.626-1.855s1.626 0.831 1.626 1.855z">
            </path>
            <path fill="#f8d24e" style="fill: var(--color1, #f8d24e)"
                d="M42.258 22.261c0 1.025-0.728 1.855-1.626 1.855s-1.626-0.831-1.626-1.855c0-1.025 0.728-1.855 1.626-1.855s1.626 0.831 1.626 1.855z">
            </path>
            <path fill="#f8d24e" style="fill: var(--color1, #f8d24e)"
                d="M46.438 19.942c0 1.025-0.728 1.855-1.626 1.855s-1.626-0.831-1.626-1.855c0-1.025 0.728-1.855 1.626-1.855s1.626 0.831 1.626 1.855z">
            </path>
            <path fill="#f8d24e" style="fill: var(--color1, #f8d24e)"
                d="M51.081 16.232c0 1.025-0.728 1.855-1.626 1.855s-1.626-0.831-1.626-1.855c0-1.025 0.728-1.855 1.626-1.855s1.626 0.831 1.626 1.855z">
            </path>
            <path fill="#f8d24e" style="fill: var(--color1, #f8d24e)"
                d="M41.33 18.087c0 1.025-0.728 1.855-1.626 1.855s-1.626-0.831-1.626-1.855c0-1.025 0.728-1.855 1.626-1.855s1.626 0.831 1.626 1.855z">
            </path>
            <path fill="#f8d24e" style="fill: var(--color1, #f8d24e)"
                d="M17.646 28.29c0 1.025-0.832 1.855-1.857 1.855s-1.857-0.831-1.857-1.855c0-1.025 0.832-1.855 1.857-1.855s1.857 0.831 1.857 1.855z">
            </path>
            <path fill="#f8d24e" style="fill: var(--color1, #f8d24e)"
                d="M21.361 25.971c0 1.025-0.832 1.855-1.857 1.855s-1.857-0.831-1.857-1.855c0-1.025 0.832-1.855 1.857-1.855s1.857 0.831 1.857 1.855z">
            </path>
            <path fill="#f8d24e" style="fill: var(--color1, #f8d24e)"
                d="M26.005 23.188c0 1.025-0.832 1.855-1.857 1.855s-1.857-0.831-1.857-1.855c0-1.025 0.832-1.855 1.857-1.855s1.857 0.831 1.857 1.855z">
            </path>
            <path fill="#f8d24e" style="fill: var(--color1, #f8d24e)"
                d="M29.72 20.87c0 1.025-0.832 1.855-1.857 1.855s-1.857-0.831-1.857-1.855c0-1.025 0.832-1.855 1.857-1.855s1.857 0.831 1.857 1.855z">
            </path>
            <path fill="#f8d24e" style="fill: var(--color1, #f8d24e)"
                d="M10.216 27.826c0 1.025-0.832 1.855-1.857 1.855s-1.857-0.831-1.857-1.855c0-1.025 0.832-1.855 1.857-1.855s1.857 0.831 1.857 1.855z">
            </path>
            <path fill="#f8d24e" style="fill: var(--color1, #f8d24e)"
                d="M13.931 25.507c0 1.025-0.832 1.855-1.857 1.855s-1.857-0.831-1.857-1.855c0-1.025 0.832-1.855 1.857-1.855s1.857 0.831 1.857 1.855z">
            </path>
            <path fill="#f8d24e" style="fill: var(--color1, #f8d24e)"
                d="M18.575 22.725c0 1.025-0.832 1.855-1.857 1.855s-1.857-0.831-1.857-1.855c0-1.025 0.832-1.855 1.857-1.855s1.857 0.831 1.857 1.855z">
            </path>
            <path fill="#f8d24e" style="fill: var(--color1, #f8d24e)"
                d="M22.29 20.406c0 1.025-0.832 1.855-1.857 1.855s-1.857-0.831-1.857-1.855c0-1.025 0.832-1.855 1.857-1.855s1.857 0.831 1.857 1.855z">
            </path>
        </symbol>
        <symbol id="points-mobile" viewBox="0 0 205 32">
            <path fill="#f8d24e" style="fill: var(--color1, #f8d24e)"
                d="M156.54 29.617c0 0.982-0.745 1.779-1.664 1.779s-1.664-0.796-1.664-1.779c0-0.982 0.745-1.779 1.664-1.779s1.664 0.796 1.664 1.779z">
            </path>
            <path fill="#f8d24e" style="fill: var(--color1, #f8d24e)"
                d="M160.146 27.245c0 0.982-0.745 1.779-1.664 1.779s-1.664-0.796-1.664-1.779c0-0.982 0.745-1.779 1.664-1.779s1.664 0.796 1.664 1.779z">
            </path>
            <path fill="#f8d24e" style="fill: var(--color1, #f8d24e)"
                d="M164.305 24.578c0 0.982-0.745 1.779-1.664 1.779s-1.664-0.796-1.664-1.779c0-0.982 0.745-1.779 1.664-1.779s1.664 0.796 1.664 1.779z">
            </path>
            <path fill="#f8d24e" style="fill: var(--color1, #f8d24e)"
                d="M168.189 22.207c0 0.982-0.745 1.779-1.664 1.779s-1.664-0.796-1.664-1.779c0-0.982 0.745-1.779 1.664-1.779s1.664 0.796 1.664 1.779z">
            </path>
            <path fill="#f8d24e" style="fill: var(--color1, #f8d24e)"
                d="M165.969 28.431c0 0.982-0.745 1.779-1.664 1.779s-1.664-0.796-1.664-1.779c0-0.982 0.745-1.779 1.664-1.779s1.664 0.796 1.664 1.779z">
            </path>
            <path fill="#f8d24e" style="fill: var(--color1, #f8d24e)"
                d="M169.575 26.060c0 0.982-0.745 1.779-1.664 1.779s-1.664-0.796-1.664-1.779c0-0.982 0.745-1.779 1.664-1.779s1.664 0.796 1.664 1.779z">
            </path>
            <path fill="#f8d24e" style="fill: var(--color1, #f8d24e)"
                d="M173.734 23.392c0 0.982-0.745 1.779-1.664 1.779s-1.664-0.796-1.664-1.779c0-0.982 0.745-1.779 1.664-1.779s1.664 0.796 1.664 1.779z">
            </path>
            <path fill="#f8d24e" style="fill: var(--color1, #f8d24e)"
                d="M177.619 21.021c0 0.982-0.745 1.779-1.664 1.779s-1.664-0.796-1.664-1.779c0-0.982 0.745-1.779 1.664-1.779s1.664 0.796 1.664 1.779z">
            </path>
            <path fill="#f8d24e" style="fill: var(--color1, #f8d24e)"
                d="M174.013 27.542c0 0.982-0.745 1.779-1.664 1.779s-1.664-0.796-1.664-1.779c0-0.982 0.745-1.779 1.664-1.779s1.664 0.796 1.664 1.779z">
            </path>
            <path fill="#f8d24e" style="fill: var(--color1, #f8d24e)"
                d="M177.619 25.171c0 0.982-0.745 1.779-1.664 1.779s-1.664-0.796-1.664-1.779c0-0.982 0.745-1.779 1.664-1.779s1.664 0.796 1.664 1.779z">
            </path>
            <path fill="#f8d24e" style="fill: var(--color1, #f8d24e)"
                d="M181.779 22.503c0 0.982-0.745 1.779-1.664 1.779s-1.664-0.796-1.664-1.779c0-0.982 0.745-1.779 1.664-1.779s1.664 0.796 1.664 1.779z">
            </path>
            <path fill="#f8d24e" style="fill: var(--color1, #f8d24e)"
                d="M185.661 20.132c0 0.982-0.745 1.779-1.664 1.779s-1.664-0.796-1.664-1.779c0-0.982 0.745-1.779 1.664-1.779s1.664 0.796 1.664 1.779z">
            </path>
            <path fill="#f8d24e" style="fill: var(--color1, #f8d24e)"
                d="M181.778 26.356c0 0.982-0.745 1.779-1.664 1.779s-1.664-0.796-1.664-1.779c0-0.982 0.745-1.779 1.664-1.779s1.664 0.796 1.664 1.779z">
            </path>
            <path fill="#f8d24e" style="fill: var(--color1, #f8d24e)"
                d="M185.383 23.985c0 0.982-0.745 1.779-1.664 1.779s-1.664-0.796-1.664-1.779c0-0.982 0.745-1.779 1.664-1.779s1.664 0.796 1.664 1.779z">
            </path>
            <path fill="#f8d24e" style="fill: var(--color1, #f8d24e)"
                d="M189.543 21.318c0 0.982-0.745 1.779-1.664 1.779s-1.664-0.796-1.664-1.779c0-0.982 0.745-1.779 1.664-1.779s1.664 0.796 1.664 1.779z">
            </path>
            <path fill="#f8d24e" style="fill: var(--color1, #f8d24e)"
                d="M193.427 18.947c0 0.982-0.745 1.779-1.664 1.779s-1.664-0.796-1.664-1.779c0-0.982 0.745-1.779 1.664-1.779s1.664 0.796 1.664 1.779z">
            </path>
            <path fill="#f8d24e" style="fill: var(--color1, #f8d24e)"
                d="M184.276 29.617c0 0.982-0.745 1.779-1.664 1.779s-1.664-0.796-1.664-1.779c0-0.982 0.745-1.779 1.664-1.779s1.664 0.796 1.664 1.779z">
            </path>
            <path fill="#f8d24e" style="fill: var(--color1, #f8d24e)"
                d="M187.882 27.245c0 0.982-0.745 1.779-1.664 1.779s-1.664-0.796-1.664-1.779c0-0.982 0.745-1.779 1.664-1.779s1.664 0.796 1.664 1.779z">
            </path>
            <path fill="#f8d24e" style="fill: var(--color1, #f8d24e)"
                d="M192.874 29.913c0 0.982-0.745 1.779-1.664 1.779s-1.664-0.796-1.664-1.779c0-0.982 0.745-1.779 1.664-1.779s1.664 0.796 1.664 1.779z">
            </path>
            <path fill="#f8d24e" style="fill: var(--color1, #f8d24e)"
                d="M192.042 24.578c0 0.982-0.745 1.779-1.664 1.779s-1.664-0.796-1.664-1.779c0-0.982 0.745-1.779 1.664-1.779s1.664 0.796 1.664 1.779z">
            </path>
            <path fill="#f8d24e" style="fill: var(--color1, #f8d24e)"
                d="M197.034 27.245c0 0.982-0.745 1.779-1.664 1.779s-1.664-0.796-1.664-1.779c0-0.982 0.745-1.779 1.664-1.779s1.664 0.796 1.664 1.779z">
            </path>
            <path fill="#f8d24e" style="fill: var(--color1, #f8d24e)"
                d="M200.918 29.913c0 0.982-0.745 1.779-1.664 1.779s-1.664-0.796-1.664-1.779c0-0.982 0.745-1.779 1.664-1.779s1.664 0.796 1.664 1.779z">
            </path>
            <path fill="#f8d24e" style="fill: var(--color1, #f8d24e)"
                d="M195.925 22.207c0 0.982-0.745 1.779-1.664 1.779s-1.664-0.796-1.664-1.779c0-0.982 0.745-1.779 1.664-1.779s1.664 0.796 1.664 1.779z">
            </path>
            <path fill="#f8d24e" style="fill: var(--color1, #f8d24e)"
                d="M200.918 24.874c0 0.982-0.745 1.779-1.664 1.779s-1.664-0.796-1.664-1.779c0-0.982 0.745-1.779 1.664-1.779s1.664 0.796 1.664 1.779z">
            </path>
            <path fill="#f8d24e" style="fill: var(--color1, #f8d24e)"
                d="M204.801 27.542c0 0.982-0.745 1.779-1.664 1.779s-1.664-0.796-1.664-1.779c0-0.982 0.745-1.779 1.664-1.779s1.664 0.796 1.664 1.779z">
            </path>
            <path fill="#f8d24e" style="fill: var(--color1, #f8d24e)"
                d="M139.622 10.055c0 0.982-0.745 1.779-1.664 1.779s-1.664-0.796-1.664-1.779c0-0.982 0.745-1.779 1.664-1.779s1.664 0.796 1.664 1.779z">
            </path>
            <path fill="#f8d24e" style="fill: var(--color1, #f8d24e)"
                d="M143.227 7.684c0 0.982-0.745 1.779-1.664 1.779s-1.664-0.796-1.664-1.779c0-0.982 0.745-1.779 1.664-1.779s1.664 0.796 1.664 1.779z">
            </path>
            <path fill="#f8d24e" style="fill: var(--color1, #f8d24e)"
                d="M147.388 5.016c0 0.982-0.745 1.779-1.664 1.779s-1.664-0.796-1.664-1.779c0-0.982 0.745-1.779 1.664-1.779s1.664 0.796 1.664 1.779z">
            </path>
            <path fill="#f8d24e" style="fill: var(--color1, #f8d24e)"
                d="M151.27 2.645c0 0.982-0.745 1.779-1.664 1.779s-1.664-0.796-1.664-1.779c0-0.982 0.745-1.779 1.664-1.779s1.664 0.796 1.664 1.779z">
            </path>
            <path fill="#f8d24e" style="fill: var(--color1, #f8d24e)"
                d="M132.687 9.758c0 0.982-0.745 1.779-1.664 1.779s-1.664-0.796-1.664-1.779c0-0.982 0.745-1.779 1.664-1.779s1.664 0.796 1.664 1.779z">
            </path>
            <path fill="#f8d24e" style="fill: var(--color1, #f8d24e)"
                d="M136.292 7.387c0 0.982-0.745 1.779-1.664 1.779s-1.664-0.796-1.664-1.779c0-0.982 0.745-1.779 1.664-1.779s1.664 0.796 1.664 1.779z">
            </path>
            <path fill="#f8d24e" style="fill: var(--color1, #f8d24e)"
                d="M140.452 4.72c0 0.982-0.745 1.779-1.664 1.779s-1.664-0.796-1.664-1.779c0-0.982 0.745-1.779 1.664-1.779s1.664 0.796 1.664 1.779z">
            </path>
            <path fill="#f8d24e" style="fill: var(--color1, #f8d24e)"
                d="M144.335 2.349c0 0.982-0.745 1.779-1.664 1.779s-1.664-0.796-1.664-1.779c0-0.982 0.745-1.779 1.664-1.779s1.664 0.796 1.664 1.779z">
            </path>
            <path fill="#f8d24e" style="fill: var(--color1, #f8d24e)"
                d="M148.219 29.617c0 0.982-0.745 1.779-1.664 1.779s-1.664-0.796-1.664-1.779c0-0.982 0.745-1.779 1.664-1.779s1.664 0.796 1.664 1.779z">
            </path>
            <path fill="#f8d24e" style="fill: var(--color1, #f8d24e)"
                d="M151.824 27.245c0 0.982-0.745 1.779-1.664 1.779s-1.664-0.796-1.664-1.779c0-0.982 0.745-1.779 1.664-1.779s1.664 0.796 1.664 1.779z">
            </path>
            <path fill="#f8d24e" style="fill: var(--color1, #f8d24e)"
                d="M155.984 24.578c0 0.982-0.745 1.779-1.664 1.779s-1.664-0.796-1.664-1.779c0-0.982 0.745-1.779 1.664-1.779s1.664 0.796 1.664 1.779z">
            </path>
            <path fill="#f8d24e" style="fill: var(--color1, #f8d24e)"
                d="M159.868 22.207c0 0.982-0.745 1.779-1.664 1.779s-1.664-0.796-1.664-1.779c0-0.982 0.745-1.779 1.664-1.779s1.664 0.796 1.664 1.779z">
            </path>
            <path fill="#f8d24e" style="fill: var(--color1, #f8d24e)"
                d="M143.781 27.839c0 0.982-0.745 1.779-1.664 1.779s-1.664-0.796-1.664-1.779c0-0.982 0.745-1.779 1.664-1.779s1.664 0.796 1.664 1.779z">
            </path>
            <path fill="#f8d24e" style="fill: var(--color1, #f8d24e)"
                d="M147.387 25.468c0 0.982-0.745 1.779-1.664 1.779s-1.664-0.796-1.664-1.779c0-0.982 0.745-1.779 1.664-1.779s1.664 0.796 1.664 1.779z">
            </path>
            <path fill="#f8d24e" style="fill: var(--color1, #f8d24e)"
                d="M151.547 22.799c0 0.982-0.745 1.779-1.664 1.779s-1.664-0.796-1.664-1.779c0-0.982 0.745-1.779 1.664-1.779s1.664 0.796 1.664 1.779z">
            </path>
            <path fill="#f8d24e" style="fill: var(--color1, #f8d24e)"
                d="M155.43 20.429c0 0.982-0.745 1.779-1.664 1.779s-1.664-0.796-1.664-1.779c0-0.982 0.745-1.779 1.664-1.779s1.664 0.796 1.664 1.779z">
            </path>
            <path fill="#f8d24e" style="fill: var(--color1, #f8d24e)"
                d="M145.446 21.614c0 0.982-0.745 1.779-1.664 1.779s-1.664-0.796-1.664-1.779c0-0.982 0.745-1.779 1.664-1.779s1.664 0.796 1.664 1.779z">
            </path>
            <path fill="#f8d24e" style="fill: var(--color1, #f8d24e)"
                d="M149.051 19.243c0 0.982-0.745 1.779-1.664 1.779s-1.664-0.796-1.664-1.779c0-0.982 0.745-1.779 1.664-1.779s1.664 0.796 1.664 1.779z">
            </path>
            <path fill="#f8d24e" style="fill: var(--color1, #f8d24e)"
                d="M153.212 16.575c0 0.982-0.745 1.779-1.664 1.779s-1.664-0.796-1.664-1.779c0-0.982 0.745-1.779 1.664-1.779s1.664 0.796 1.664 1.779z">
            </path>
            <path fill="#f8d24e" style="fill: var(--color1, #f8d24e)"
                d="M157.094 14.204c0 0.982-0.745 1.779-1.664 1.779s-1.664-0.796-1.664-1.779c0-0.982 0.745-1.779 1.664-1.779s1.664 0.796 1.664 1.779z">
            </path>
            <path fill="#f8d24e" style="fill: var(--color1, #f8d24e)"
                d="M145.446 11.24c0 0.982-0.745 1.779-1.664 1.779s-1.664-0.796-1.664-1.779c0-0.982 0.745-1.779 1.664-1.779s1.664 0.796 1.664 1.779z">
            </path>
            <path fill="#f8d24e" style="fill: var(--color1, #f8d24e)"
                d="M149.051 8.869c0 0.982-0.745 1.779-1.664 1.779s-1.664-0.796-1.664-1.779c0-0.982 0.745-1.779 1.664-1.779s1.664 0.796 1.664 1.779z">
            </path>
            <path fill="#f8d24e" style="fill: var(--color1, #f8d24e)"
                d="M153.212 6.202c0 0.982-0.745 1.779-1.664 1.779s-1.664-0.796-1.664-1.779c0-0.982 0.745-1.779 1.664-1.779s1.664 0.796 1.664 1.779z">
            </path>
            <path fill="#f8d24e" style="fill: var(--color1, #f8d24e)"
                d="M157.094 3.83c0 0.982-0.745 1.779-1.664 1.779s-1.664-0.796-1.664-1.779c0-0.982 0.745-1.779 1.664-1.779s1.664 0.796 1.664 1.779z">
            </path>
            <path fill="#f8d24e" style="fill: var(--color1, #f8d24e)"
                d="M144.613 16.872c0 0.982-0.745 1.779-1.664 1.779s-1.664-0.796-1.664-1.779c0-0.982 0.745-1.779 1.664-1.779s1.664 0.796 1.664 1.779z">
            </path>
            <path fill="#f8d24e" style="fill: var(--color1, #f8d24e)"
                d="M148.22 14.5c0 0.982-0.745 1.779-1.664 1.779s-1.664-0.796-1.664-1.779c0-0.982 0.745-1.779 1.664-1.779s1.664 0.796 1.664 1.779z">
            </path>
            <path fill="#f8d24e" style="fill: var(--color1, #f8d24e)"
                d="M152.379 11.834c0 0.982-0.745 1.779-1.664 1.779s-1.664-0.796-1.664-1.779c0-0.982 0.745-1.779 1.664-1.779s1.664 0.796 1.664 1.779z">
            </path>
            <path fill="#f8d24e" style="fill: var(--color1, #f8d24e)"
                d="M156.262 9.462c0 0.982-0.745 1.779-1.664 1.779s-1.664-0.796-1.664-1.779c0-0.982 0.745-1.779 1.664-1.779s1.664 0.796 1.664 1.779z">
            </path>
            <path fill="#f8d24e" style="fill: var(--color1, #f8d24e)"
                d="M127.14 8.276c0 0.982-0.745 1.779-1.664 1.779s-1.664-0.796-1.664-1.779c0-0.982 0.745-1.779 1.664-1.779s1.664 0.796 1.664 1.779z">
            </path>
            <path fill="#f8d24e" style="fill: var(--color1, #f8d24e)"
                d="M130.746 5.905c0 0.982-0.745 1.779-1.664 1.779s-1.664-0.796-1.664-1.779c0-0.982 0.745-1.779 1.664-1.779s1.664 0.796 1.664 1.779z">
            </path>
            <path fill="#f8d24e" style="fill: var(--color1, #f8d24e)"
                d="M134.906 3.238c0 0.982-0.745 1.779-1.664 1.779s-1.664-0.796-1.664-1.779c0-0.982 0.745-1.779 1.664-1.779s1.664 0.796 1.664 1.779z">
            </path>
            <path fill="#f8d24e" style="fill: var(--color1, #f8d24e)"
                d="M132.964 10.054c0.919 0 1.665-0.796 1.665-1.778s-0.746-1.779-1.665-1.779-1.664 0.796-1.664 1.779c0 0.982 0.745 1.778 1.664 1.778z">
            </path>
            <path fill="#f8d24e" style="fill: var(--color1, #f8d24e)"
                d="M56.441 21.475c0.141 0.985-0.491 1.907-1.413 2.058s-1.784-0.525-1.925-1.511c-0.141-0.985 0.491-1.907 1.413-2.058s1.784 0.525 1.925 1.511z">
            </path>
            <path fill="#f8d24e" style="fill: var(--color1, #f8d24e)"
                d="M59.717 18.504c0.141 0.985-0.491 1.907-1.413 2.058s-1.784-0.525-1.925-1.511c-0.141-0.985 0.491-1.907 1.413-2.058s1.784 0.525 1.925 1.511z">
            </path>
            <path fill="#f8d24e" style="fill: var(--color1, #f8d24e)"
                d="M63.506 15.144c0.141 0.985-0.491 1.906-1.413 2.058s-1.784-0.525-1.925-1.511c-0.141-0.985 0.491-1.906 1.413-2.058s1.784 0.525 1.925 1.511z">
            </path>
            <path fill="#f8d24e" style="fill: var(--color1, #f8d24e)"
                d="M67.060 12.128c0.141 0.985-0.491 1.906-1.413 2.058s-1.784-0.525-1.925-1.511c-0.141-0.985 0.491-1.906 1.413-2.058s1.784 0.525 1.925 1.511z">
            </path>
            <path fill="#f8d24e" style="fill: var(--color1, #f8d24e)"
                d="M3.482 21.473c0 0.997-0.779 1.805-1.741 1.805s-1.741-0.808-1.741-1.805c0-0.997 0.779-1.805 1.741-1.805s1.741 0.808 1.741 1.805z">
            </path>
            <path fill="#f8d24e" style="fill: var(--color1, #f8d24e)"
                d="M7.252 19.067c0 0.997-0.779 1.805-1.741 1.805s-1.741-0.808-1.741-1.805c0-0.997 0.779-1.805 1.741-1.805s1.741 0.808 1.741 1.805z">
            </path>
            <path fill="#f8d24e" style="fill: var(--color1, #f8d24e)"
                d="M11.605 16.36c0 0.997-0.779 1.805-1.741 1.805s-1.741-0.808-1.741-1.805c0-0.997 0.779-1.805 1.741-1.805s1.741 0.808 1.741 1.805z">
            </path>
            <path fill="#f8d24e" style="fill: var(--color1, #f8d24e)"
                d="M15.666 13.953c0 0.997-0.779 1.805-1.741 1.805s-1.741-0.808-1.741-1.805c0-0.997 0.779-1.805 1.741-1.805s1.741 0.808 1.741 1.805z">
            </path>
            <path fill="#f8d24e" style="fill: var(--color1, #f8d24e)"
                d="M5.222 25.984c0 0.997-0.779 1.805-1.741 1.805s-1.741-0.808-1.741-1.805c0-0.997 0.779-1.805 1.741-1.805s1.741 0.808 1.741 1.805z">
            </path>
            <path fill="#f8d24e" style="fill: var(--color1, #f8d24e)"
                d="M8.994 23.578c0 0.997-0.779 1.805-1.741 1.805s-1.741-0.808-1.741-1.805c0-0.997 0.779-1.805 1.741-1.805s1.741 0.808 1.741 1.805z">
            </path>
            <path fill="#f8d24e" style="fill: var(--color1, #f8d24e)"
                d="M13.347 20.871c0 0.997-0.779 1.805-1.741 1.805s-1.741-0.808-1.741-1.805c0-0.997 0.779-1.805 1.741-1.805s1.741 0.808 1.741 1.805z">
            </path>
            <path fill="#f8d24e" style="fill: var(--color1, #f8d24e)"
                d="M17.407 18.465c0 0.997-0.779 1.805-1.741 1.805s-1.741-0.808-1.741-1.805c0-0.997 0.779-1.805 1.741-1.805s1.741 0.808 1.741 1.805z">
            </path>
            <path fill="#f8d24e" style="fill: var(--color1, #f8d24e)"
                d="M9.573 28.39c0 0.997-0.779 1.805-1.741 1.805s-1.741-0.808-1.741-1.805c0-0.997 0.779-1.805 1.741-1.805s1.741 0.808 1.741 1.805z">
            </path>
            <path fill="#f8d24e" style="fill: var(--color1, #f8d24e)"
                d="M13.345 25.984c0 0.997-0.779 1.805-1.741 1.805s-1.741-0.808-1.741-1.805c0-0.997 0.779-1.805 1.741-1.805s1.741 0.808 1.741 1.805z">
            </path>
            <path fill="#f8d24e" style="fill: var(--color1, #f8d24e)"
                d="M17.697 23.277c0 0.997-0.779 1.805-1.741 1.805s-1.741-0.808-1.741-1.805c0-0.997 0.779-1.805 1.741-1.805s1.741 0.808 1.741 1.805z">
            </path>
            <path fill="#f8d24e" style="fill: var(--color1, #f8d24e)"
                d="M21.757 20.871c0 0.997-0.779 1.805-1.741 1.805s-1.741-0.808-1.741-1.805c0-0.997 0.779-1.805 1.741-1.805s1.741 0.808 1.741 1.805z">
            </path>
            <path fill="#f8d24e" style="fill: var(--color1, #f8d24e)"
                d="M14.504 29.895c0 0.997-0.779 1.805-1.741 1.805s-1.741-0.808-1.741-1.805c0-0.997 0.779-1.805 1.741-1.805s1.741 0.808 1.741 1.805z">
            </path>
            <path fill="#f8d24e" style="fill: var(--color1, #f8d24e)"
                d="M18.276 27.488c0 0.997-0.779 1.805-1.741 1.805s-1.741-0.808-1.741-1.805c0-0.997 0.779-1.805 1.741-1.805s1.741 0.808 1.741 1.805z">
            </path>
            <path fill="#f8d24e" style="fill: var(--color1, #f8d24e)"
                d="M22.629 24.781c0 0.997-0.779 1.805-1.741 1.805s-1.741-0.808-1.741-1.805c0-0.997 0.779-1.805 1.741-1.805s1.741 0.808 1.741 1.805z">
            </path>
            <path fill="#f8d24e" style="fill: var(--color1, #f8d24e)"
                d="M26.689 22.375c0 0.997-0.779 1.805-1.741 1.805s-1.741-0.808-1.741-1.805c0-0.997 0.779-1.805 1.741-1.805s1.741 0.808 1.741 1.805z">
            </path>
            <path fill="#f8d24e" style="fill: var(--color1, #f8d24e)"
                d="M20.888 30.196c0 0.997-0.779 1.805-1.741 1.805s-1.741-0.808-1.741-1.805c0-0.997 0.779-1.805 1.741-1.805s1.741 0.808 1.741 1.805z">
            </path>
            <path fill="#f8d24e" style="fill: var(--color1, #f8d24e)"
                d="M24.659 27.789c0 0.997-0.779 1.805-1.741 1.805s-1.741-0.808-1.741-1.805c0-0.997 0.779-1.805 1.741-1.805s1.741 0.808 1.741 1.805z">
            </path>
            <path fill="#f8d24e" style="fill: var(--color1, #f8d24e)"
                d="M29.011 25.082c0 0.997-0.779 1.805-1.741 1.805s-1.741-0.808-1.741-1.805c0-0.997 0.779-1.805 1.741-1.805s1.741 0.808 1.741 1.805z">
            </path>
            <path fill="#f8d24e" style="fill: var(--color1, #f8d24e)"
                d="M33.072 22.676c0 0.997-0.779 1.805-1.741 1.805s-1.741-0.808-1.741-1.805c0-0.997 0.779-1.805 1.741-1.805s1.741 0.808 1.741 1.805z">
            </path>
            <path fill="#f8d24e" style="fill: var(--color1, #f8d24e)"
                d="M28.431 30.195c0 0.997-0.779 1.805-1.741 1.805s-1.741-0.808-1.741-1.805c0-0.997 0.779-1.805 1.741-1.805s1.741 0.808 1.741 1.805z">
            </path>
            <path fill="#f8d24e" style="fill: var(--color1, #f8d24e)"
                d="M32.202 27.789c0 0.997-0.779 1.805-1.741 1.805s-1.741-0.808-1.741-1.805c0-0.997 0.779-1.805 1.741-1.805s1.741 0.808 1.741 1.805z">
            </path>
            <path fill="#f8d24e" style="fill: var(--color1, #f8d24e)"
                d="M36.554 25.082c0 0.997-0.779 1.805-1.741 1.805s-1.741-0.808-1.741-1.805c0-0.997 0.779-1.805 1.741-1.805s1.741 0.808 1.741 1.805z">
            </path>
            <path fill="#f8d24e" style="fill: var(--color1, #f8d24e)"
                d="M40.616 22.676c0 0.997-0.779 1.805-1.741 1.805s-1.741-0.808-1.741-1.805c0-0.997 0.779-1.805 1.741-1.805s1.741 0.808 1.741 1.805z">
            </path>
            <path fill="#f8d24e" style="fill: var(--color1, #f8d24e)"
                d="M34.812 29.894c0 0.997-0.779 1.805-1.741 1.805s-1.741-0.808-1.741-1.805c0-0.997 0.779-1.805 1.741-1.805s1.741 0.808 1.741 1.805z">
            </path>
            <path fill="#f8d24e" style="fill: var(--color1, #f8d24e)"
                d="M38.583 27.488c0 0.997-0.779 1.805-1.741 1.805s-1.741-0.808-1.741-1.805c0-0.997 0.779-1.805 1.741-1.805s1.741 0.808 1.741 1.805z">
            </path>
            <path fill="#f8d24e" style="fill: var(--color1, #f8d24e)"
                d="M42.936 24.781c0 0.997-0.779 1.805-1.741 1.805s-1.741-0.808-1.741-1.805c0-0.997 0.779-1.805 1.741-1.805s1.741 0.808 1.741 1.805z">
            </path>
            <path fill="#f8d24e" style="fill: var(--color1, #f8d24e)"
                d="M46.996 22.375c0 0.997-0.779 1.805-1.741 1.805s-1.741-0.808-1.741-1.805c0-0.997 0.779-1.805 1.741-1.805s1.741 0.808 1.741 1.805z">
            </path>
            <path fill="#f8d24e" style="fill: var(--color1, #f8d24e)"
                d="M42.065 29.594c0 0.997-0.779 1.805-1.741 1.805s-1.741-0.808-1.741-1.805c0-0.997 0.779-1.805 1.741-1.805s1.741 0.808 1.741 1.805z">
            </path>
            <path fill="#f8d24e" style="fill: var(--color1, #f8d24e)"
                d="M45.836 27.187c0 0.997-0.779 1.805-1.741 1.805s-1.741-0.808-1.741-1.805c0-0.997 0.779-1.805 1.741-1.805s1.741 0.808 1.741 1.805z">
            </path>
            <path fill="#f8d24e" style="fill: var(--color1, #f8d24e)"
                d="M50.188 24.481c0 0.997-0.779 1.805-1.741 1.805s-1.741-0.808-1.741-1.805c0-0.997 0.779-1.805 1.741-1.805s1.741 0.808 1.741 1.805z">
            </path>
            <path fill="#f8d24e" style="fill: var(--color1, #f8d24e)"
                d="M54.249 22.074c0 0.997-0.779 1.805-1.741 1.805s-1.741-0.808-1.741-1.805c0-0.997 0.779-1.805 1.741-1.805s1.741 0.808 1.741 1.805z">
            </path>
            <path fill="#f8d24e" style="fill: var(--color1, #f8d24e)"
                d="M48.737 21.773c0 0.997-0.779 1.805-1.741 1.805s-1.741-0.808-1.741-1.805c0-0.997 0.779-1.805 1.741-1.805s1.741 0.808 1.741 1.805z">
            </path>
            <path fill="#f8d24e" style="fill: var(--color1, #f8d24e)"
                d="M52.508 19.367c0 0.997-0.779 1.805-1.741 1.805s-1.741-0.808-1.741-1.805c0-0.997 0.779-1.805 1.741-1.805s1.741 0.808 1.741 1.805z">
            </path>
            <path fill="#f8d24e" style="fill: var(--color1, #f8d24e)"
                d="M56.86 16.66c0 0.997-0.779 1.805-1.741 1.805s-1.741-0.808-1.741-1.805c0-0.997 0.779-1.805 1.741-1.805s1.741 0.808 1.741 1.805z">
            </path>
            <path fill="#f8d24e" style="fill: var(--color1, #f8d24e)"
                d="M60.922 14.254c0 0.997-0.779 1.805-1.741 1.805s-1.741-0.808-1.741-1.805c0-0.997 0.779-1.805 1.741-1.805s1.741 0.808 1.741 1.805z">
            </path>
        </symbol>

    </defs>
</svg>